SplineFontDB: 3.0
FontName: Career
FullName: Career
FamilyName: Career
Weight: Medium
Copyright: Created by Antoine Gelgon with FontForge 2.0 (http://fontforge.sf.net)\n\nUnder OpenFont License http://scripts.sil.org/cms/scripts/page.php?site_id=nrsi&id=OFL\n
UComments: "2014-5-9: Created." 
FontLog: "FontLog Career Caslon+AAoACgAK-14/08/2014 : Antoine Gelgon+AAoA--Modified vector of 's'+AAoA--creation of the 'C' and 'R'+AAoACgAA-15/08/2014 : Antoine Gelgon+AAoA--Creation of the 'E' 'F' 'I' 'D' 'A' 'N'+AAoA--modification of the finestroke on the 'L'+AAoA--Normalization of finestroke around 16 large for capitals.+AAoACgAA-18/08/2014 : Antoine Gelgon+AAoA--Creation of the 'O' 'Q' 'M' 'K'+AAoACgAA-22/08/2014 : Antoine Gelgon+AAoA--Creation of the U V W+AAoA--Modification of the w v+AAoACgAA-25/08/2014 : Antoine Gelgon+AAoA--Creation of the X Y G+AAoA--Modification f's drop.+AAoA--Optical modifications for O C Q S. these letters have been extended+AAoACgAA-29/08/2014 : Antoine Gelgon+AAoA--Creation of the Z+AAoA--All uppercases and lowercase were drawn." 
Version: 001.000
ItalicAngle: 0
UnderlinePosition: -100
UnderlineWidth: 50
Ascent: 800
Descent: 200
UFOAscent: 800
UFODescent: -200
LayerCount: 2
Layer: 0 0 "Arri+AOgA-re"  1
Layer: 1 0 "Avant"  0
FSType: 8
OS2Version: 0
OS2_WeightWidthSlopeOnly: 0
OS2_UseTypoMetrics: 0
CreationTime: 1407112779
ModificationTime: 1409418504
PfmFamily: 17
TTFWeight: 500
TTFWidth: 5
LineGap: 90
VLineGap: 0
OS2TypoAscent: 0
OS2TypoAOffset: 1
OS2TypoDescent: 0
OS2TypoDOffset: 1
OS2TypoLinegap: 90
OS2WinAscent: 0
OS2WinAOffset: 1
OS2WinDescent: 0
OS2WinDOffset: 1
HheadAscent: 0
HheadAOffset: 1
HheadDescent: 0
HheadDOffset: 1
OS2Vendor: 'PfEd'
MarkAttachClasses: 1
DEI: 91125
LangName: 1033 "" "" "" "" "" "Version 001.000" 
Encoding: UnicodeBmp
UnicodeInterp: none
NameList: Adobe Glyph List
DisplaySize: -48
AntiAlias: 1
FitToEm: 1
WinInfo: 24 24 10
BeginPrivate: 0
EndPrivate
Grid
-1000 -15 m 0
 2000 -15 l 0
  Named: "O" 
-1000 815 m 0

StartChar: a
Encoding: 97 97 0
Width: 500
VWidth: 0
GlyphClass: 2
Flags: W
HStem: -10 45<98 220.47> 489 21<216.437 321.5>
VStem: 10 149<283.729 369.922> 12 138<50.5949 153.83> 292 134<35.1406 458.683> 302 8<93 118>
LayerCount: 2
Fore
SplineSet
310 118 m 1xd4
 310 43 205 -10 128 -10 c 0
 68 -10 12 32 12 91 c 1
 10 175 103 213 162 240 c 0
 208 261 272 284 321 304 c 1
 323 292 324 286 325 285 c 1
 231 253 146 236 150 125 c 0
 151 81 159 35 213 35 c 0
 248 35 302 93 302 129 c 1
 310 118 l 1xd4
159 363 m 5xe8
 159 302 132 252 75 253 c 0
 40 253 9 277 10 311 c 0
 10 334 23 361 49 393 c 0
 94 446 187 510 286 510 c 0
 357 510 401 482 419 430 c 0
 423 416 426 402 426 387 c 2
 426 62 l 2
 426 46 435 37 449 33 c 0
 457 31 469 35 483 45 c 1
 490 40 l 1
 474 19 430 -10 390 -10 c 0
 331 -10 292 17 292 70 c 2
 292 430 l 6
 292 463 287 488 253 489 c 5
 198 489 158 465 158 410 c 5
 159 363 l 5xe8
EndSplineSet
Validated: 37
EndChar

StartChar: o
Encoding: 111 111 1
Width: 556
VWidth: 0
GlyphClass: 2
Flags: W
PickledData: "(dp1
S'com.fontlab.hintData'
p2
(dp3
S'vhints'
p4
((dp5
S'position'
p6
I10
sS'width'
p7
I162
s(dp8
g6
I384
sg7
I162
stp9
sS'hhints'
p10
((dp11
g6
I-12
sg7
I20
s(dp12
g6
I491
sg7
I17
stp13
ss."
HStem: -10 19<233.782 320.466> 493 17<235.504 318.729>
VStem: 10 162<145.16 356.074> 383 163<144.991 353.681>
LayerCount: 2
Back
SplineSet
795 252 m 4
 795 180.667 798.667 129.333 806 98 c 0
 814 64.6666 825 41.3333 839 28 c 1
 855 15.3333 875.333 9 900 9 c 0
 925.333 9 946 15.3333 962 28 c 1
 976 41.3333 987 64.6667 995 98 c 1
 1002.33 133.333 1006 184.667 1006 252 c 0
 1006 316.667 1002.33 367.333 995 404 c 1
 987 437.333 976 460.667 962 474 c 1
 946 486.667 925.333 493 900 493 c 0
 875.333 493 855 486.667 839 474 c 1
 825 460.667 814 437.333 806 404 c 0
 798.667 372 795 321.333 795 252 c 4
633 251 m 4
 633 324.333 659 386 711 436 c 1
 763.667 485.333 826.667 510 900 510 c 0
 974 510 1037.33 485.333 1090 436 c 1
 1142 386 1168.33 324.333 1169 251 c 1
 1168.33 175 1142 112.667 1090 64 c 1
 1038.67 14.6667 975.333 -10 900 -10 c 0
 825.333 -10 762.333 14.6667 711 64 c 1
 659 112.667 633 175 633 251 c 4
EndSplineSet
Fore
SplineSet
277 493 m 0
 170.209 493 172 373.878 172 252 c 0
 172 127.969 169.678 9 277 9 c 0
 385.293 9 383 127.198 383 252 c 0
 383 374.787 384.714 493 277 493 c 0
10 251 m 4
 10 325 36 386 88 436 c 4
 140 485 203 510 277 510 c 4
 351 510 415 485 467 436 c 4
 519 386 545 325 546 251 c 5
 545 175 519 113 467 64 c 4
 415 14 351 -10 277 -10 c 4
 203 -10 140 14 88 64 c 4
 36 113 10 175 10 251 c 4
EndSplineSet
Validated: 33
EndChar

StartChar: r
Encoding: 114 114 2
Width: 453
VWidth: 0
GlyphClass: 2
Flags: W
PickledData: "(dp1
S'com.fontlab.hintData'
p2
(dp3
S'vhints'
p4
((dp5
S'position'
p6
I97
sS'width'
p7
I134
stp8
sS'hhints'
p9
((dp10
g6
I0
sg7
I8
s(dp11
g6
I480
sg7
I20
stp12
ss."
HStem: 0 8<37 49.3263 279.433 291> 414 96<270.5 393.5> 480 20G<210.5 231>
VStem: 96 135<22.1807 392.201>
LayerCount: 2
Fore
SplineSet
231 59 m 2xb0
 231 46 235 35 246 27 c 0
 255 20 265 15 276 12 c 2
 291 8 l 1
 291 0 l 5
 208.831 10.7291 124.832 10.7245 37 0 c 5
 37 2 37 5 36 8 c 1
 51 12 l 2
 62 14 72 19 81 27 c 1
 92 35 97 44 96 54 c 1
 97 320 l 2
 97 350 89 375 73 394 c 0
 57 413 36 426 10 433 c 1
 10 439 l 1
 64 447 106 455 137 463 c 0
 168 471 197 483 224 500 c 1
 231 499 l 1
 231 59 l 2xb0
288 414 m 0xd0
 259 414 226 311 212 291 c 1
 218 348 l 1
 254 400 282 510 370 510 c 0
 417 510 443 474 443 427 c 0
 443 383 415 346 377 346 c 0
 342 346 316 365 299 404 c 0
 297 411 293 414 288 414 c 0xd0
EndSplineSet
Validated: 37
EndChar

StartChar: d
Encoding: 100 100 3
Width: 574
VWidth: 0
GlyphClass: 2
Flags: W
PickledData: "(dp1
S'com.fontlab.hintData'
p2
(dp3
S'vhints'
p4
((dp5
S'position'
p6
I10
sS'width'
p7
I145
s(dp8
g6
I366
sg7
I29
s(dp9
g6
I367
sg7
I137
stp10
sS'hhints'
p11
((dp12
g6
I-8
sg7
I51
s(dp13
g6
I36
sg7
I9
s(dp14
g6
I483
sg7
I24
stp15
ss."
HStem: -10 51<229.315 308.131> 36 12<537.452 562.996> 486 24<219.53 311.786>
VStem: 10 144<143.378 344.981> 366 28<73 242 361 448> 563 1<38.0469 40.8594 43 44.907>
LayerCount: 2
Fore
SplineSet
436 108 m 0,0,-1
205 -10 m 4,1,-1
 78 -10 10 101 10 232 c 0,4,-1
 10 383 111 510 262 510 c 0,7,-1
 346 510 397 448 395 361 c 1,10,-1
 394 242 l 1,11,-1
 394 73 358 -10 205 -10 c 4,1,-1
366 248 m 0,14,-1
 366 361 377 486 263 486 c 0,17,-1
 191 486 154 413 154 273 c 0,20,-1
 154 174 193 42 286 41 c 5,23,-1
 376 39 366 159 366 248 c 0,14,-1
280 739 m 1,26,-1
 323 746 353 751 369 754 c 0,29,-1
 385 757 405 762 428 770 c 0,32,-1
 452 778 474 788 494 801 c 1,35,-1
 501 800 l 1,36,-1
 503 108 l 2,37,-1
 503 93 508 81 518 70 c 0,40,-1
 528 60 538 52 548 48 c 0,43,-1
 558 44 563 43 563 45 c 1,46,-1
 564 43 564 42 564 41 c 0,49,-1
 564 40 564 39 563 38 c 0,52,-1
 563 37 562 36 562 36 c 1,55,-1
 541 38 508 34 463 24 c 0,58,-1
 419 14 388 4 372 -4 c 1,61,-1
 365 0 l 1,62,-1
 367 620 l 2,63,-1
 367 651 360 676 344 695 c 0,66,-1
 329 714 307 727 281 733 c 1,69,-1
 280 739 l 1,26,-1
EndSplineSet
Validated: 37
EndChar

StartChar: s
Encoding: 115 115 4
Width: 425
VWidth: 0
GlyphClass: 2
Flags: W
PickledData: "(dp1
S'com.fontlab.hintData'
p2
(dp3
S'vhints'
p4
((dp5
S'position'
p6
I47
sS'width'
p7
I8
stp8
sS'hhints'
p9
((dp10
g6
I-12
sg7
I18
s(dp11
g6
I490
sg7
I21
stp12
ss."
LayerCount: 2
Back
SplineSet
217 173 m 5
 179 199 87 219 49 278 c 4
 -28 397 104.995 509 213 509 c 5
 306 509 339 467 339 467 c 5
 354 324 l 5
 346 324 l 5
 282 443 220 489 178 488 c 4
 120 486 92 410 184 362 c 5
 276 323 l 5
 276 323 396 272 396 151 c 4
 396 65 311 -11 213 -11 c 4
 123 -11 43 36 43 36 c 5
 46 216 l 5
 54 216 l 5
 74 127 166 7 234 7 c 4
 303 7 330 106 217 173 c 5
EndSplineSet
Fore
SplineSet
124.25 436.75 m 21
 124.25 328 396 351.333 396 151.002 c 5
 396 65 311 -10 213 -10 c 4
 123 -10 43 36 43 36 c 5
 46 216 l 5
 54 216 l 5
 74 127 166 8 234 8 c 4
 293.713 8 294.047 69 294.047 69 c 5
 293.713 205 25.8333 189.5 25.833 348.167 c 4
 25.8329 421.5 104.995 510 213 510 c 5
 306 510 339 467 339 467 c 5
 354 324 l 5
 346 324 l 5
 282 443 223.012 489 181 489 c 4
 127.25 489 124.25 436.75 124.25 436.75 c 21
EndSplineSet
Validated: 1
EndChar

StartChar: e
Encoding: 101 101 5
Width: 500
VWidth: 0
GlyphClass: 2
Flags: W
PickledData: "(dp1
S'com.fontlab.hintData'
p2
(dp3
S'vhints'
p4
((dp5
S'position'
p6
I10
sS'width'
p7
I343
stp8
sS'hhints'
p9
((dp10
g6
I-11
sg7
I100
s(dp11
g6
I288
sg7
I18
s(dp12
g6
I491
sg7
I17
stp13
ss."
HStem: -11 100<254.309 339.917> 288 18<127 484> 493 17<231.113 300.059>
VStem: 10 343<288 384>
LayerCount: 2
Fore
SplineSet
10 249 m 0
 10 396 123 510 270 510 c 0
 402 510 487 384 487 288 c 1
 353 288 l 1
 353 384 350 493 270 493 c 0
 88 493 112 89 336 89 c 0
 373 89 432 93 476 163 c 1
 486 162 l 1
 486 158.917 440 20.2274 269 -11 c 1
 121 -11 10 100 10 249 c 0
487 288 m 1
 127 288 l 1
 119 306 l 1
 484 306 l 1
 487 288 l 1
EndSplineSet
Validated: 37
EndChar

StartChar: n
Encoding: 110 110 7
Width: 611
VWidth: 0
GlyphClass: 2
Flags: W
PickledData: "(dp1
S'com.fontlab.hintData'
p2
(dp3
S'vhints'
p4
((dp5
S'position'
p6
I97
sS'width'
p7
I134
s(dp8
g6
I213
sg7
I18
s(dp9
g6
I407
sg7
I134
stp10
sS'hhints'
p11
((dp12
g6
I0
sg7
I8
s(dp13
g6
I433
sg7
I6
s(dp14
g6
I480
sg7
I20
stp15
ss."
HStem: 0 8<36.001 48.6206 278.184 291 346 358.355 588.583 600> 433 6<10 18.9637> 480 20G<191.5 231>
VStem: 96 135<22.2129 393.474> 212 19<374 410> 406 135<22.1807 421.89>
LayerCount: 2
Fore
SplineSet
540 365 m 2xec
 541 59 l 1
 540 46 545 35 556 27 c 0
 565 20 575 15 586 12 c 2
 601 8 l 1
 600 5 600 2 600 0 c 5
 518.999 11.3581 433.999 11.4256 346 0 c 5
 346 8 l 1
 361 12 l 2
 371 14 381 19 391 27 c 0
 401 35 406 44 406 54 c 2
 406 316 l 2
 406 575 212 374 212 374 c 1
 212 410 l 1
 454 597 540 492 540 365 c 2xec
10 439 m 1
 107 454 159 460 224 500 c 1
 231 499 l 1xec
 231 59 l 1
 230 33 255 17 276 12 c 2
 291 8 l 1
 291 0 l 1
 200.216 11.6454 101.253 9.75874 36.001 0 c 1
 35.9092 -0.0527344 36 8 36 8 c 1
 51 12 l 1
 69 16 97 33 96 54 c 1xf4
 97 320 l 2
 97 383 61 420 10 433 c 1
 10 439 l 1
EndSplineSet
Validated: 37
EndChar

StartChar: f
Encoding: 102 102 8
Width: 354
VWidth: 0
GlyphClass: 2
Flags: HW
PickledData: "(dp1
S'com.fontlab.hintData'
p2
(dp3
S'vhints'
p4
((dp5
S'position'
p6
I70
sS'width'
p7
I133
s(dp8
g6
I223
sg7
I121
stp9
sS'hhints'
p10
((dp11
g6
I0
sg7
I8
s(dp12
g6
I434
sg7
I7
s(dp13
g6
I637
sg7
I170
stp14
ss."
HStem: 0 8<10 21.8261 251.906 264> 434 7<70 203> 776.661 30.3389<198.689 277>
VStem: 70 133<27.3866 441> 223 121<650.434 764.05>
LayerCount: 2
Fore
SplineSet
289 434 m 1
 14 434 l 1
 14 443 l 1
 95 555 120 807 248 807 c 0
 306 807 344 744 344 701 c 1
 343 662 318 637 287 637 c 0
 254 637 223 650 223 696 c 1
 223 726.667 243.667 776.661 209.347 776.661 c 1
 198.333 776.661 174.398 764.625 170 720 c 1
 170 628 206 542 206 480 c 1
 302 480 l 1
 289 434 l 1
70 441 m 1
 203 441 l 1
 203 59 l 1
 203 59 208 35 219 27 c 0
 228 20 238 15 249 12 c 2
 264 8 l 1
 264 0 l 1
 177.89 10.7332 94.1099 10.694 10 0 c 1
 10 8 l 1
 25 12 l 2
 35 14 45 19 55 27 c 0
 65 35 70 44 70 54 c 2
 70 441 l 1
EndSplineSet
Validated: 524325
EndChar

StartChar: c
Encoding: 99 99 9
Width: 496
VWidth: 0
GlyphClass: 2
Flags: W
PickledData: "(dp1
S'com.fontlab.hintData'
p2
(dp3
S'vhints'
p4
((dp5
S'position'
p6
I329
sS'width'
p7
I132
stp8
sS'hhints'
p9
((dp10
g6
I-11
sg7
I100
s(dp11
g6
I491
sg7
I17
stp12
ss."
HStem: -10 100<254.309 364.633> 493 17<231.592 299.581>
VStem: 329 132<270.951 408.633>
LayerCount: 2
Fore
SplineSet
329 368 m 1
 350 465 304 494 270 493 c 5
 88 493 112 90 336 90 c 0
 373 90 432 93 476 163 c 1
 486 162 l 1
 486 162 440 -10 269 -10 c 0
 121 -10 10 100 10 249 c 1
 11 397 125 510 272 510 c 4
 394 510 461 407 461 330 c 0
 461 268 423 254 393 254 c 0
 349 254 313 300 329 368 c 1
EndSplineSet
Validated: 33
EndChar

StartChar: p
Encoding: 112 112 10
Width: 580
VWidth: 0
GlyphClass: 2
Flags: W
PickledData: "(dp1
S'com.fontlab.hintData'
p2
(dp3
S'vhints'
p4
((dp5
S'position'
p6
I97
sS'width'
p7
I134
s(dp8
g6
I202
sg7
I29
s(dp9
g6
I418
sg7
I152
stp10
sS'hhints'
p11
((dp12
g6
I-112
sg7
I8
s(dp13
g6
I-11
sg7
I19
s(dp14
g6
I434
sg7
I6
s(dp15
g6
I437
sg7
I63
stp16
ss."
HStem: -111 8<37 49.3488 279.455 291> -11 19<278.254 348.085> 433 6<10 18.9637> 447 63<250 450> 480 20G<191.5 231>
VStem: 96 135<-88.2919 -52 130 393.474> 202 29<42 415> 418 152<154.711 353.119>
LayerCount: 2
Fore
SplineSet
10 439 m 1xed
 107 454 159 461 224 500 c 1
 231 499 l 1xeb
 231 -52 l 1
 230 -78 255 -93 276 -99 c 2
 291 -103 l 1
 291 -111 l 5
 209 -100.669 125 -100.664 37 -111 c 5
 37 -109 37 -106 36 -103 c 1
 51 -99 l 2
 69 -95 97 -78 96 -57 c 1
 97 320 l 2
 97 383 61 420 10 433 c 1
 10 439 l 1xed
386 510 m 0xf3
 514 510 570 397 570 267 c 0
 570 120 467 -11 321 -11 c 0
 237 -11 200 42 202 130 c 1
 203 249 l 1
 201 415 266 510 386 510 c 0xf3
231 243 m 0xf5
 231 130 213 8 319 8 c 0
 396 8 418 159 418 224 c 0
 418 407 324 447 292 447 c 0
 208 447 231 251 231 243 c 0xf5
EndSplineSet
Validated: 37
EndChar

StartChar: b
Encoding: 98 98 11
Width: 596
VWidth: 0
GlyphClass: 2
Flags: W
PickledData: "(dp1
S'com.fontlab.hintData'
p2
(dp3
S'vhints'
p4
((dp5
S'position'
p6
I95
sS'width'
p7
I7
s(dp8
g6
I203
sg7
I30
s(dp9
g6
I444
sg7
I145
stp10
sS'hhints'
p11
((dp12
g6
I-4
sg7
I24
s(dp13
g6
I460
sg7
I51
stp14
ss."
HStem: -11 23<228.391 334.972> 460 51<243.207 326.097> 733 6<-32 -23.2302>
VStem: 53 7<0 3.65702> 160 30<52 429> 401 145<154.332 358.528>
LayerCount: 2
Fore
SplineSet
-11 739 m 1
 83.8418 754.807 136.605 759.898 203 801 c 1
 210 800 l 1
 211 101 l 1
 206 52 241 13 315 -11 c 1
 202 -11 189.667 52.9971 140 53 c 0
 106.333 53 81 -2.33301 81 -4 c 1
 74 0 l 1
 76 620 l 2
 76 682.312 40.9824 721.448 -11 733 c 1
 -11 739 l 1
145 107 m 0
371 511 m 0
 499 511 567 401 567 271 c 0
 567 119 467 -11 315 -11 c 0
 232 -11 180 47 181 135 c 2
 182 261 l 1
 182 429 219 511 371 511 c 0
211 255 m 0
 211 141 200 12 313 12 c 0
 386 12 422 89 422 230 c 0
 422 328 384 458 290 460 c 0
 201 461 211 343 211 255 c 0
EndSplineSet
Validated: 37
EndChar

StartChar: g
Encoding: 103 103 12
Width: 502
VWidth: 0
GlyphClass: 2
Flags: W
PickledData: "(dp1
S'com.fontlab.hintData'
p2
(dp3
S'vhints'
p4
((dp5
S'position'
p6
I10
sS'width'
p7
I60
s(dp8
g6
I29
sg7
I152
s(dp9
g6
I300
sg7
I152
stp10
sS'hhints'
p11
((dp12
g6
I-112
sg7
I17
s(dp13
g6
I0
sg7
I142
s(dp14
g6
I189
sg7
I14
s(dp15
g6
I500
sg7
I7
s(dp16
g6
I523
sg7
I139
stp17
ss."
HStem: -114 18<132.599 348.013> 0 142<138.417 372.19> 192 14<193.639 261.642> 500 10<231.476 250> 523 139<311.681 423.64>
VStem: 10 60<-71.0946 -1.45973> 29 152<275.953 417.609> 300 152<274.972 417.792>
LayerCount: 2
Fore
SplineSet
163 207 m 1xfd
 42 155 24 120 25 86 c 1
 25 14 113 0 237 0 c 0
 377 0 397 -32 396 -53 c 1
 396 -77 363 -96 237 -96 c 0
 179 -96 70 -91 70 -39 c 0
 70 0 105 3 122 26 c 1
 94 35 l 1
 64 15 10 0 10 -40 c 0
 11 -111 175 -114 237 -114 c 0
 452 -114 492 -51 492 25 c 0
 492 114 423 142 324 142 c 2
 143 142 l 2
 92 142 191 200 191 200 c 1
 163 207 l 1xfd
231 500 m 1
 250 500 l 1
 250 500 261 574 305 549 c 1
 330 533 339 523 380 523 c 0
 415 523 442 557 442 595 c 0
 442 642 406 662 375 662 c 0
 261 662 231 500 231 500 c 1
240 206 m 4
 196 206 181 270 181 346 c 5xfb
 180 417 188 494 240 494 c 4
 292 494 300 417 300 346 c 4
 300 270 284 206 240 206 c 4
240 510 m 4
 150 510 29 456 29 345 c 4
 29 238 150 192 240 192 c 4
 329 192 452 238 452 345 c 4
 452 456 329 510 240 510 c 4
EndSplineSet
Validated: 37
EndChar

StartChar: t
Encoding: 116 116 13
Width: 357
VWidth: 0
GlyphClass: 2
Flags: W
PickledData: "(dp1
S'com.fontlab.hintData'
p2
(dp3
S'vhints'
p4
((dp5
S'position'
p6
I66
sS'width'
p7
I133
stp8
sS'hhints'
p9
((dp10
g6
I-4
sg7
I40
s(dp11
g6
I462
sg7
I7
stp12
ss."
HStem: -10 40<139 291.426> 462 7<65 198>
VStem: 65 134<55.2418 469>
LayerCount: 2
Fore
SplineSet
65 139 m 2
 65 469 l 1
 198 469 l 1
 199 144 l 1
 202 57 230 30 268 30 c 0
 310 30 340 61 339 62 c 2
 347 56 l 1
 347 56 304 -10 206 -10 c 0
 72 -10 65 106 65 139 c 2
191 668 m 1
 201 668 l 1
 201 668 202 554 202 508 c 1
 313 508 l 1
 300 462 l 1
 10 462 l 1
 10 471 l 1
 10 471 111 544 191 668 c 1
EndSplineSet
Validated: 37
EndChar

StartChar: m
Encoding: 109 109 14
Width: 859
VWidth: 0
GlyphClass: 2
Flags: W
PickledData: "(dp1
S'com.fontlab.hintData'
p2
(dp3
S'vhints'
p4
((dp5
S'position'
p6
I97
sS'width'
p7
I134
s(dp8
g6
I213
sg7
I18
s(dp9
g6
I407
sg7
I134
s(dp10
g6
I524
sg7
I17
s(dp11
g6
I718
sg7
I134
stp12
sS'hhints'
p13
((dp14
g6
I0
sg7
I8
s(dp15
g6
I433
sg7
I6
s(dp16
g6
I480
sg7
I20
stp17
ss."
HStem: 0 8<-40 -27.6512 202.455 214 269 281.355 511.583 523 580 592.355 822.583 834> 433 6<-67 -58.0363> 480 20G<114.5 154>
VStem: 19 135<22.2129 393.474> 135 19<372 408> 329 135<22.1807 419.89> 446 17<372 374.834> 640 135<22.1807 419.89>
LayerCount: 2
Fore
SplineSet
812.5 363 m 2xe3
 813.5 59 l 1
 812.5 46 817.5 35 828.5 27 c 0
 837.5 20 847.5 15 858.5 12 c 2
 873.5 8 l 1
 872.5 5 872.5 2 872.5 0 c 1
 791.5 10 706.5 10 618.5 0 c 1
 618.5 8 l 1
 633.5 12 l 2
 643.5 14 653.5 19 663.5 27 c 0
 673.5 35 678.5 44 678.5 54 c 2
 678.5 314 l 2
 678.5 573 484.5 372 484.5 372 c 1
 484.5 408 l 1
 726.5 595 812.5 490 812.5 363 c 2xe3
501.5 363 m 2
 502.5 59 l 1
 501.5 46 506.5 35 517.5 27 c 0
 526.5 20 536.5 15 547.5 12 c 2
 562.5 8 l 1
 561.5 5 561.5 2 561.5 0 c 1
 480.5 10 395.5 10 307.5 0 c 1
 307.5 8 l 1
 322.5 12 l 2
 332.5 14 342.5 19 352.5 27 c 0
 362.5 35 367.5 44 367.5 54 c 2
 367.5 314 l 2
 367.5 573 173.5 372 173.5 372 c 1
 173.5 408 l 1xed
 415.5 595 501.5 490 501.5 363 c 2
-28.5 439 m 1
 68.5 454 120.5 460 185.5 500 c 1
 192.5 499 l 1xe9
 192.5 59 l 1
 191.5 33 216.5 17 237.5 12 c 2
 252.5 8 l 1
 252.5 0 l 1
 170.5 10 86.5 10 -1.5 0 c 1
 -1.5 2 -1.5 5 -2.5 8 c 1
 12.5 12 l 2
 30.5 16 58.5 33 57.5 54 c 1xf1
 58.5 320 l 2
 58.5 383 22.5 420 -28.5 433 c 1
 -28.5 439 l 1
EndSplineSet
Validated: 524325
EndChar

StartChar: i
Encoding: 105 105 15
Width: 301
VWidth: 0
GlyphClass: 2
Flags: W
PickledData: "(dp1
S'com.fontlab.hintData'
p2
(dp3
S'vhints'
p4
((dp5
S'position'
p6
I90
sS'width'
p7
I167
s(dp8
g6
I97
sg7
I134
stp9
sS'hhints'
p10
((dp11
g6
I0
sg7
I8
s(dp12
g6
I433
sg7
I6
s(dp13
g6
I480
sg7
I20
s(dp14
g6
I636
sg7
I176
stp15
ss."
HStem: 0 8<37 48.8312 278.945 291> 433 6<10 18.9637> 481 20G<191.5 231> 636 175<117.804 228.626>
VStem: 90 167<665.069 782.081> 96 135<22.2129 393.474>
LayerCount: 2
Fore
SplineSet
-560 1261 m 0,0,-1
90 724 m 0,1,-1
 90 771 125 811 173 811 c 0,4,-1
 221 811 257 771 257 724 c 0,7,-1
 257 676 221 636 173 636 c 0,10,-1
 125 636 90 676 90 724 c 0,1,-1
10 439 m 1,13,-1
 107 454 159 461 224 501 c 1,16,-1
 231 500 l 1,17,-1
 231 59 l 1,18,-1
 230 33 255 17 276 12 c 2,21,-1
 291 8 l 1,22,-1
 291 0 l 5,23,-1
 205.195 10.7272 121.135 10.7226 37 0 c 5,26,-1
 37 2 37 5 36 8 c 1,29,-1
 51 12 l 2,30,-1
 69 16 97 33 96 54 c 1,33,-1
 97 320 l 2,34,-1
 97 383 61 420 10 433 c 1,37,-1
 10 439 l 1,13,-1
EndSplineSet
Validated: 33
EndChar

StartChar: h
Encoding: 104 104 16
Width: 578
VWidth: 0
GlyphClass: 2
Flags: W
PickledData: "(dp1
S'com.fontlab.hintData'
p2
(dp3
S'vhints'
p4
((dp5
S'position'
p6
I65
sS'width'
p7
I134
s(dp8
g6
I180
sg7
I19
s(dp9
g6
I374
sg7
I134
stp10
sS'hhints'
p11
((dp12
g6
I0
sg7
I8
s(dp13
g6
I780
sg7
I20
stp14
ss."
HStem: 0 8<4 18.8375 245.321 258 314 329 553 568> 779 20G<177.5 198.027>
VStem: 64 135<22.1807 693.201> 180 19<373 409> 374 134<22.6934 420.89>
LayerCount: 2
Fore
SplineSet
508 364 m 2xd8
 508 59 l 2
 508 46 512 35 523 27 c 0
 533 20 543 15 553 12 c 2
 568 8 l 1
 568 0 l 5
 483.854 -0.277193 398.912 0.294347 314 0 c 5
 314 8 l 1
 329 12 l 2
 339 14 349 19 359 27 c 0
 369 35 374 44 374 54 c 2
 374 315 l 1
 373 574 180 373 180 373 c 1
 180 409 l 1
 422 596 508 491 508 364 c 2xd8
199 59 m 2xe8
 199 46 203 35 214 27 c 0
 223 20 233 15 244 12 c 2
 259 8 l 1
 258 5 258 2 258 0 c 1
 167.577 10.7171 82.7546 10.7036 4 0 c 1
 4 8 l 1
 19 12 l 2
 29 14 39 19 49 27 c 0
 59 35 64 44 64 54 c 2
 64 620 l 2
 64 651 57 676 41 695 c 0
 25 714 4 726 -22 733 c 1
 -22 739 l 1
 31 747 74 756 105 764 c 0
 136 771 164 783 191 799 c 1
 198 799 l 1
 199 59 l 2xe8
EndSplineSet
Validated: 37
EndChar

StartChar: l
Encoding: 108 108 17
Width: 259
VWidth: 0
GlyphClass: 2
Flags: HMW
PickledData: "(dp1
S'com.fontlab.hintData'
p2
(dp3
S'vhints'
p4
((dp5
S'position'
p6
I97
sS'width'
p7
I134
stp8
sS'hhints'
p9
((dp10
g6
I0
sg7
I8
s(dp11
g6
I780
sg7
I20
stp12
ss."
VStem: 59.5 135<46 159 620 693.201>
LayerCount: 2
Fore
SplineSet
194.5 59 m 2
 194.5 46 198.5 35 209.5 27 c 0
 218.5 20 228.5 15 239.5 12 c 2
 254.5 8 l 1
 254.5 0 l 1
 172.05 10.7185 88.0594 10.7035 0.5 0 c 1
 0.5 2 0.5 5 -0.5 8 c 1
 14.5 12 l 2
 25.5 14 35.5 19 44.5 27 c 1
 55.5 35 59.5 44 59.5 54 c 2
 60.5 620 l 2
 60.5 651 52.5 676 36.5 695 c 0
 20.5 714 -0.5 726 -26.5 733 c 1
 -26.5 739 l 1
 27.5 747 69.5 756 100.5 764 c 0
 131.5 771 160.5 783 187.5 799 c 1
 194.5 799 l 1
 194.5 59 l 2
EndSplineSet
Validated: 33
EndChar

StartChar: q
Encoding: 113 113 18
Width: 572
VWidth: 0
GlyphClass: 2
Flags: W
PickledData: "(dp1
S'com.fontlab.hintData'
p2
(dp3
S'vhints'
p4
((dp5
S'position'
p6
I10
sS'width'
p7
I145
s(dp8
g6
I367
sg7
I28
s(dp9
g6
I497
sg7
I7
stp10
sS'hhints'
p11
((dp12
g6
I-112
sg7
I8
s(dp13
g6
I-8
sg7
I51
s(dp14
g6
I483
sg7
I24
stp15
ss."
HStem: -111 8<307 319.355 549.583 561> -10 51<229.315 308.131> 483 20G<496 503> 486 24<219.53 327.188>
VStem: 10 144<143.378 344.981> 366 28<73 242 361 443> 496 7<495.343 499>
LayerCount: 2
Back
SplineSet
928 -55 m 5
 928 395 l 1
 932 445.667 897.333 483 824 507 c 1
 852 507 877.167 503.167 899.5 495.5 c 0
 921.833 487.833 937.333 480 946 472 c 2
 959 460 l 1
 969 449.333 979.333 443.5 990 442.5 c 0
 1000.67 441.5 1009.84 444.333 1017.5 451 c 0
 1025.17 457.667 1032.17 465.167 1038.5 473.5 c 0
 1044.87 481.833 1049.7 489.5 1053 496.5 c 2
 1058 507 l 1
 1065 503 l 1
 1065 -52 l 2
 1065 -74.6666 1079.67 -90.3333 1109 -99 c 1
 1124 -103 l 1
 1124 -104.333 1123.83 -105.833 1123.5 -107.5 c 0
 1123.17 -109.166 1123 -110.332 1123 -111 c 1
 1041.67 -101 957 -101 869 -111 c 1
 869 -103 l 1
 884 -99 l 2
 894 -97 904 -91.5 914 -82.5 c 0
 924 -73.5 928.667 -64.3333 928 -55 c 5
994 395 m 4
767 -8 m 4
 705.665 -8 657.832 14.8333 623.5 60.5 c 0
 589.167 106.167 572 163.333 572 232 c 0
 572 309.333 595.5 374.5 642.5 427.5 c 0
 689.5 480.5 750 507 824 507 c 0
 866 507 899 493.667 923 467 c 0
 947 440.333 958.333 405 957 361 c 1
 956 242 l 1
 956 152.667 942.833 88.6667 916.5 50 c 0
 890.166 11.3333 840.333 -8 767 -8 c 4
928 248 m 6
 928 323.954 926.225 371.94 922.675 391.96 c 1
 906.196 449.536 873.638 479.883 825 483 c 1
 752.333 483 716 413 716 273 c 0
 716 215.667 727.333 163.167 750 115.5 c 0
 772.671 67.8333 805.338 43.6667 848 43 c 0
 858 43 866.833 44 874.5 46 c 0
 882.18 48 888.847 52 894.5 58 c 0
 900.167 64 905 69.6667 909 75 c 0
 913 80.3333 916.167 88.3333 918.5 99 c 0
 920.833 109.667 922.833 118.167 924.5 124.5 c 0
 926.167 130.833 927.167 141 927.5 155 c 0
 927.833 169 928 179.167 928 185.5 c 2
 928 218 l 1
 928 248 l 6
EndSplineSet
Fore
SplineSet
262 510 m 1xde
 375 510 387.333 446.003 437 446 c 0
 470.667 446 496 501.333 496 503 c 1xee
 503 499 l 1
 503 -52 l 2
 503 -78 526 -93 547 -99 c 2
 562 -103 l 1
 562 -106 561 -109 561 -111 c 1
 480 -101 395 -101 307 -111 c 1
 307 -103 l 1
 322 -99 l 2
 339 -95 367 -75 366 -55 c 1
 366 395 l 1
 370 443 336 486 262 510 c 1xde
432 395 m 0
205 -10 m 0
 78 -10 10 101 10 232 c 0
 10 383 111 510 262 510 c 0xde
 346 510 397 448 395 361 c 1
 394 242 l 1
 394 73 358 -10 205 -10 c 0
366 248 m 0
 366 361 377 486 263 486 c 0
 191 486 154 413 154 273 c 0
 154 174 193 42 286 41 c 1
 376 39 366 159 366 248 c 0
EndSplineSet
Validated: 37
EndChar

StartChar: j
Encoding: 106 106 19
Width: 307
VWidth: 0
GlyphClass: 2
Flags: W
PickledData: "(dp1
S'com.fontlab.hintData'
p2
(dp3
S'vhints'
p4
((dp5
S'position'
p6
I10
sS'width'
p7
I121
s(dp8
g6
I131
sg7
I167
s(dp9
g6
I138
sg7
I134
stp10
sS'hhints'
p11
((dp12
g6
I-116
sg7
I170
s(dp13
g6
I433
sg7
I6
s(dp14
g6
I636
sg7
I176
stp15
ss."
HStem: -116 32.334<126.449 146> 433 6<50 59.0545> 636 175<158.234 268.626>
VStem: 10 121.337<-72.8416 41.2063> 131 166<665.069 782.081> 138 133<59.8092 134 320 389.812>
LayerCount: 2
Fore
SplineSet
271 120 m 6xf4
 271 500 l 5
 264 501 l 5
 200 461 148 454 50 439 c 5
 50 433 l 5
 102 420 137 383 137 320 c 6
 138 134 l 6
 138 78 184.341 34.333 184.341 -31.667 c 5
 178.625 -82.3678 143.228 -83.666 146 -83.666 c 5
 111 -83.666 131.337 -30.3333 131.337 -6 c 5
 131.337 40 100 54 67 54 c 5
 31 52 10 28 10 -10 c 4
 10 -53 48 -116 106 -116 c 4
 234 -116 271 52 271 120 c 6xf4
131 724 m 0xe8
 131 771 165 811 213 811 c 0
 261 811 297 771 297 724 c 0
 297 676 261 636 213 636 c 0
 165 636 131 676 131 724 c 0xe8
EndSplineSet
Validated: 524329
EndChar

StartChar: u
Encoding: 117 117 20
Width: 579
VWidth: 0
GlyphClass: 2
Flags: W
PickledData: "(dp1
S'com.fontlab.hintData'
p2
(dp3
S'vhints'
p4
((dp5
S'position'
p6
I70
sS'width'
p7
I134
s(dp8
g6
I380
sg7
I134
stp9
sS'hhints'
p10
((dp11
g6
I-1
sg7
I21
s(dp12
g6
I39
sg7
I9
s(dp13
g6
I492
sg7
I8
stp14
ss."
HStem: 36 12<539.452 564.996> 480 20G<171.5 193 481.5 503>
VStem: 59 134<79.5632 391.437> 367 136<65.4666 394.201> 565 1<38.0469 40.8594 43 44.907>
LayerCount: 2
Fore
SplineSet
503 500 m 1
 503 109 l 2
 503 95 510 81 520 70 c 0
 530 60 540 52 550 48 c 0
 560 44 565 43 565 45 c 1
 566 43 566 42 566 41 c 0
 566 40 566 39 565 38 c 0
 565 37 564 36 564 36 c 1
 543 38 510 34 465 24 c 0
 421 14 390 4 374 -4 c 1
 367 0 l 1
 368 321 l 2
 368.07 352 360 377 344 396 c 0
 328 415 307 427 281 434 c 1
 281 440 l 1
 335 448 377 457 408 465 c 0
 439 472 468 484 495 500 c 1
 503 500 l 1
193 500 m 1
 193 185.679 l 2
 193 -72.3223 387 127 387 127 c 1
 387 91 l 1
 145 -95 59.6914 8.00098 59 136 c 2
 58 321 l 2
 57.8984 352 50 377 34 396 c 0
 18 415 -3 427 -29 434 c 1
 -29 440 l 1
 25 448 67 457 98 465 c 0
 129 472 158 484 185 500 c 1
 193 500 l 1
EndSplineSet
Validated: 37
EndChar

StartChar: v
Encoding: 118 118 21
Width: 628
VWidth: 0
GlyphClass: 2
Flags: W
PickledData: "(dp1
S'com.fontlab.hintData'
p2
(dp3
S'hhints'
p4
((dp5
S'position'
p6
I492
sS'width'
p7
I8
stp8
ss."
HStem: 487 13<237.019 249> 492 8<363 378.925 594.871 617>
LayerCount: 2
Back
SplineSet
274.25 -10 m 5
 282.25 -10 l 1
266 -11 m 5
 70 446 l 2
 60 468.667 45 482.333 25 487 c 1
 10 492 l 1
 10 500 l 1
 97.3333 489.333 182 489.333 264 500 c 1
 264 492 l 1
 249 487 l 1
 231 483 227 468 237 442 c 2
 349 157 l 1
 266 -11 l 5
433 319 m 5
 266 -11 l 1
 259 5 l 1
 413 327 l 2
 423 347.667 429.667 366.5 433 383.5 c 0
 436.333 400.5 436.833 414.667 434.5 426 c 0
 432.167 437.335 428.5 447.168 423.5 455.5 c 0
 418.5 463.835 412.5 470.168 405.5 474.5 c 0
 398.5 478.833 391.833 482.5 385.5 485.5 c 0
 379.167 488.5 373.833 490.333 369.5 491 c 2
 363 492 l 1
 363 500 l 1
 451 488.667 535.667 488.667 617 500 c 1
 618 492 l 1
 599.333 492 580.167 486 560.5 474 c 0
 540.833 462 523.833 447.5 509.5 430.5 c 0
 495.167 413.5 482 396.5 470 379.5 c 0
 458 362.5 448.833 348.167 442.5 336.5 c 2
 433 319 l 5
EndSplineSet
Fore
SplineSet
269.872 -10.001 m 17x80
 433 319 l 1
 433 319 518 491 618 492 c 1
 618 492 617 497 617 500 c 1
 536 489 451 489 363 500 c 1
 363 492 l 1x40
 363 492 484.119 478.9 413 327 c 2
 340.376 171.885 l 1
 237 442 l 2
 227.045 468.013 228 482 249 487 c 1x80
 264 492 l 1
 264 500 l 1
 182 489 98 489 10 500 c 1
 10 492 l 1x40
 25 487 l 1
 42 483 61.1201 467.051 70 446 c 2
 262.37 -10.001 l 9
 269.872 -10.001 l 17x80
269.857 -10.001 m 1
 262.475 -10.001 l 1
269.872 -10.001 m 1
 269.857 -10.001 l 1
 348.818 149.824 l 1
 340.376 171.885 l 1
 259.091 -1.72754 l 1
 262.475 -10.001 l 1
 262.37 -10.001 l 1
EndSplineSet
Validated: 43
EndChar

StartChar: w
Encoding: 119 119 22
Width: 982
VWidth: 0
GlyphClass: 2
Flags: W
PickledData: "(dp1
S'com.fontlab.hintData'
p2
(dp3
S'hhints'
p4
((dp5
S'position'
p6
I492
sS'width'
p7
I8
stp8
ss."
HStem: 492 8<722.5 738.965 949.828 976.5>
LayerCount: 2
Fore
SplineSet
269.872 -10.001 m 9
 262.37 -10.001 l 17
 70 446 l 2
 61.1201 467.051 42 483 25 487 c 1
 10 492 l 1
 10 500 l 1
 98 489 182 489 264 500 c 1
 264 492 l 1
 249 487 l 1
 228 482 227.045 468.013 237 442 c 2
 340.376 171.885 l 1
 413 327 l 1
 484.119 478.889 363 492.307 363 492 c 1
 363 500 l 1
 451 489 536 489 617 500 c 1
 617 497 618 492 618 492 c 1
 518 491 433 319 433 319 c 1
 269.872 -10.001 l 9
269.857 -10.001 m 1
 262.475 -10.001 l 1
363.006 491.999 m 1
 363 500 l 1
 451 489 536 489 617 500 c 1
 617 497 617 494 618 492 c 1
 603 487 l 1
 582 482 580.782 468.317 591 442 c 2
 699.876 171.885 l 1
 772.5 327 l 2
 843.619 478.9 722.5 492 722.5 492 c 1
 722.5 500 l 1
 810.5 489 895.5 489 976.5 500 c 1
 976.5 497 977.5 492 977.5 492 c 1
 877.5 491 792.5 319 792.5 319 c 1
 629.372 -10.001 l 9
 621.416 -10.1826 l 17
 557.069 141.988 493.405 292.125 428.546 445.818 c 1
 409.825 488.243 362.455 492.356 363.006 491.999 c 1
EndSplineSet
Validated: 524331
EndChar

StartChar: x
Encoding: 120 120 23
Width: 588
VWidth: 0
GlyphClass: 2
Flags: W
PickledData: "(dp1
S'com.fontlab.hintData'
p2
(dp3
S'hhints'
p4
((dp5
S'position'
p6
I0
sS'width'
p7
I8
s(dp8
g6
I495
sg7
I8
stp9
ss."
HStem: 0 8<240.645 253 334 345.417 575.645 588> 491 13<237.019 249> 495 8<323 331.241 554.114 577>
LayerCount: 2
Fore
SplineSet
234 159 m 1xa0
 149 17 253 8 253 8 c 1
 253 0 l 1
 165 10 80 10 -1 0 c 1
 -0 2 -1 8 -1 8 c 1
 98 9 208 159 208 159 c 1
 352 343 l 1
 437 466 323 495 323 495 c 1
 323 503 l 1
 411 492 496 492 577 503 c 1
 577 500 578 495 578 495 c 1
 485 495 377 343 377 343 c 1
 234 159 l 1xa0
524 59 m 5
 524 59 551 18 573 12 c 6
 588 8 l 5
 588 0 l 5
 500 10 415 10 334 0 c 5
 334 8 l 5
 349 12 l 6
 369 17 376.266 37.4355 361 58 c 6
 70 450 l 6
 55 470 42 487 25 491 c 5
 10 496 l 5
 10 504 l 5
 98 493 182 493 264 504 c 5
 264 496 l 5
 249 491 l 5xc0
 228 486 219 471 237 446 c 6
 524 59 l 5
EndSplineSet
Validated: 37
EndChar

StartChar: y
Encoding: 121 121 24
Width: 623
VWidth: 0
GlyphClass: 2
Flags: W
PickledData: "(dp1
S'com.fontlab.hintData'
p2
(dp3
S'vhints'
p4
((dp5
S'position'
p6
I49
sS'width'
p7
I122
stp8
sS'hhints'
p9
((dp10
g6
I-138
sg7
I147
s(dp11
g6
I0
sg7
I21
s(dp12
g6
I492
sg7
I8
stp13
ss."
HStem: -138 81.5908<117.5 228.204> 487 13<237.019 249> 492 8<363 378.925 594.871 617>
LayerCount: 2
Back
SplineSet
920.872 -10.001 m 21
 1084 319 l 2
 1086 323.667 1089.17 329.833 1093.5 337.5 c 0
 1097.85 345.167 1106.68 359 1120 379 c 0
 1133.33 399 1146.83 416.5 1160.5 431.5 c 0
 1174.17 446.5 1191 460.333 1211 473 c 0
 1231 485.667 1250.33 492 1269 492 c 1
 1268.33 495.333 1268 498 1268 500 c 1
 1186.67 488.667 1102 488.667 1014 500 c 1
 1014 492 l 1x0c
 1026.5 489.5 l 2
 1031.5 488.5 1039.67 484.5 1051 477.5 c 0
 1062.35 470.5 1071.18 461.667 1077.5 451 c 0
 1083.83 440.331 1086.5 424.164 1085.5 402.5 c 0
 1084.5 380.832 1077.33 355.666 1064 327 c 2
 991.376 171.885 l 1
 888 442 l 2
 878 468 882 483 900 487 c 1x14
 915 492 l 1
 915 500 l 1
 833 489.333 748.333 489.333 661 500 c 1
 661 492 l 1x0c
 676 487 l 1x14
 696.667 482.328 711.667 468.661 721 446 c 2
 913.37 -10.001 l 1
 920.872 -10.001 l 21
866 -52 m 4x84
 860.667 -52 857 -48.6667 855 -42 c 0
 847 -16 837.167 0.5 825.5 7.5 c 0
 813.833 14.5 797.667 17.3333 777 16 c 1
 758.333 16 742.667 8 730 -8 c 0
 717.333 -24 711 -43 711 -65 c 0
 711 -89 717.5 -108.833 730.5 -124.5 c 0
 743.5 -140.167 761.333 -148 784 -148 c 0
 800.657 -148 816.017 -144.273 830.081 -136.82 c 0
 844.151 -129.367 856.614 -118.399 867.471 -103.916 c 0
 878.327 -89.4322 887.205 -76.2262 894.103 -64.2976 c 0
 901.001 -52.3691 908.771 -37.0808 917.412 -18.4328 c 0
 926.054 0.215233 932.028 12.5818 935.334 18.667 c 1
 942 71 l 1
 939.333 67 933.333 54 924 32 c 0
 914.66 10 904.826 -9.5 894.5 -26.5 c 0
 884.167 -43.5 874.667 -52 866 -52 c 4x84
249 -38 m 1xb0
 243.5 -49 l 2
 241.164 -53.6667 235.831 -61.6667 227.5 -73 c 0
 219.167 -84.3333 210.667 -94.3333 202 -103 c 0
 193.333 -111.667 182.333 -119.667 169 -127 c 0
 155.666 -134.333 142.333 -138 129 -138 c 0
 108.333 -138 89.8333 -130.833 73.5 -116.5 c 0
 57.1667 -102.167 49 -81.6667 49 -55 c 0
 49 -33.6667 55.6667 -17.6667 69 -7 c 0
 82.3333 3.66667 97.3333 9 114 9 c 0
 126 9 136.667 5.83333 146 -0.5 c 0
 155.333 -6.83333 161.833 -13.3333 165.5 -20 c 2
 171 -30 l 2
 177.667 -42.6667 184 -51.3333 190 -56 c 0
 196 -60.6667 202.167 -60.6667 208.5 -56 c 0
 214.833 -51.3334 220 -46.6667 224 -42 c 0
 228 -37.3333 233.333 -29.6667 240 -19 c 1
 413 327 l 2
 426.333 355 433.833 379.833 435.5 401.5 c 0
 437.167 423.167 434.333 439.5 427 450.5 c 0
 419.667 461.5 411.167 470.333 401.5 477 c 0
 391.833 483.667 383 487.833 375 489.5 c 2
 363 492 l 1
 363 500 l 1
 451 488.667 535.667 488.667 617 500 c 1
 618 492 l 1
 599.333 492 580.167 486 560.5 474 c 0
 540.833 462 523.833 447.5 509.5 430.5 c 0
 495.167 413.5 482 396.5 470 379.5 c 0
 458 362.5 448.833 348.167 442.5 336.5 c 2
 433 319 l 1
 249 -38 l 1xb0
269 0 m 1x70
 70 446 l 2
 58.6667 471.334 38.6667 486.668 10 492 c 1
 10 500 l 1
 97.3333 489.333 182 489.333 264 500 c 1
 264 492 l 1
 249 487 l 2
 239 483 233.167 477.667 231.5 471 c 0
 229.833 464.332 231.667 454.665 237 442 c 2
 349 157 l 1
 269 0 l 1x70
EndSplineSet
Fore
SplineSet
269 34.5 m 17x80
 269 34.5 244.955 -56.4092 211.454 -56.4092 c 1
 199.455 -56.4092 183.955 -51.25 178 -30 c 1
 178 -30 170.955 9 121 9 c 0
 93 9 56 -8 56 -55 c 0
 56 -112 99 -138 136 -138 c 1
 221.955 -138 269.872 -9.12144 269.872 -10.001 c 1
 269.455 -7.75 277.503 5.34961 288.261 27.083 c 1
 269 34.5 l 17x80
269.872 -10.001 m 17
 433 319 l 1
 433 319 518 491 618 492 c 1
 618 492 617 497 617 500 c 1
 536 489 451 489 363 500 c 1
 363 492 l 1xa0
 363 492 484.119 478.9 413 327 c 2
 340.376 171.885 l 1
 237 442 l 2
 227.045 468.013 228 482 249 487 c 1xc0
 264 492 l 1
 264 500 l 1
 182 489 98 489 10 500 c 1
 10 492 l 1xa0
 25 487 l 1xc0
 42 483 61.1201 467.051 70 446 c 2
 262.37 -10.001 l 9
 269.872 -10.001 l 17
269.872 -10.001 m 1
 269.857 -10.001 l 1
262.37 -10.001 m 1
EndSplineSet
Validated: 43
EndChar

StartChar: T
Encoding: 84 84 25
Width: 778
VWidth: 0
GlyphClass: 2
Flags: W
PickledData: "(dp1
S'com.fontlab.hintData'
p2
(dp3
S'vhints'
p4
((dp5
S'position'
p6
I27
sS'width'
p7
I8
s(dp8
g6
I326
sg7
I174
s(dp9
g6
I793
sg7
I8
stp10
sS'hhints'
p11
((dp12
g6
I0
sg7
I8
s(dp13
g6
I779
sg7
I19
stp14
ss."
HStem: 0 8<177 190.723 522.545 536> 783 15<234.652 479.693> 794 20G<19.259 359 359 696.741>
VStem: -29 8<536 546.613> 270 174<40.4903 798> 737 8<536 546.613>
LayerCount: 2
Fore
SplineSet
205 0 m 1xdc
 205 8 l 1
 205 8 298 22 298 85 c 2
 298 798 l 1
 472 798 l 1
 472 85 l 2
 472 21 564 8 564 8 c 1
 564 0 l 1
 472 21 299 19 205 0 c 1xdc
442 783 m 2
 330 783 l 2xdc
 73 783 7 536 7 536 c 1
 -1 536 l 1
 51 814 l 1
 51 814 91 800 387 800 c 0
 683 800 721 814 721 814 c 1xbc
 773 536 l 1
 765 536 l 1
 765 536 699 783 442 783 c 2
EndSplineSet
Validated: 37
EndChar

StartChar: L
Encoding: 76 76 26
Width: 698
VWidth: 0
GlyphClass: 2
Flags: W
PickledData: "(dp1
S'com.fontlab.hintData'
p2
(dp3
S'vhints'
p4
((dp5
S'position'
p6
I132
sS'width'
p7
I174
stp8
sS'hhints'
p9
((dp10
g6
I0
sg7
I8
s(dp11
g6
I0
sg7
I21
s(dp12
g6
I792
sg7
I8
stp13
ss."
HStem: 0 16.9854<335 465.718> 0 8<39 55.2149> 792 8<38 54.1838 383.228 398>
VStem: 132 174.016<39.2767 759.069>
LayerCount: 2
Back
SplineSet
306 120 m 6
 305 715 l 6
 305 778 398 792 398 792 c 5
 398 800 l 5
 305 778 132 781 38 800 c 5
 38 792 l 5
 38 792 131 778 131 715 c 6
 132 85 l 6
 132 22 39 8 39 8 c 5
 39 0 l 5
 681 0 l 5x70
 722 285 l 5
 714 285 l 5
 714 285 673 21 416 21 c 4xb0
 380 21 306 21 306 120 c 6
EndSplineSet
Fore
SplineSet
306.016 85 m 2x70
 306.117 20.7275 367 16.9854 392.5 16.9854 c 1
 392.5 0 l 1xb0
 274.771 0 159.372 0 39 0 c 1
 39 8 l 1
 39 8 132.1 22 132 85 c 2
 131 715 l 6
 130.9 778 38 792 38 792 c 5
 38 800 l 5
 124.957 783.225 296.089 780.815 398 800 c 5
 398 792 l 5
 398 792 304.898 778 305 715 c 6
 306.016 85 l 2x70
392.5 16.9854 m 1
 675.5 16.9854 710 285 710 285 c 9
 719.341 284.993 l 25
 678.002 0 l 17x70
 564.835 0 505.667 0 392.5 0 c 1
 392.5 0 342.838 3.71289 309.125 7.35938 c 0
 304.327 27.8154 l 1
 304.327 27.8154 335 16.9854 392.5 16.9854 c 1
EndSplineSet
Validated: 524325
EndChar

StartChar: H
Encoding: 72 72 27
Width: 879
VWidth: 0
GlyphClass: 2
Flags: W
PickledData: "(dp1
S'com.fontlab.hintData'
p2
(dp3
S'vhints'
p4
((dp5
S'position'
p6
I118
sS'width'
p7
I174
s(dp8
g6
I204
sg7
I88
s(dp9
g6
I596
sg7
I174
stp10
sS'hhints'
p11
((dp12
g6
I0
sg7
I8
s(dp13
g6
I403
sg7
I31
s(dp14
g6
I792
sg7
I8
stp15
ss."
HStem: 0 8<24 40.1994 369.336 384 503 519.199 848.336 863> 403 31<204 710> 792 8<24 40.1994 368.882 384 503 519.199 847.882 863>
VStem: 117 174<40.4903 403 434 760.775> 204 87<403 434> 596 174<40.4903 403 434 760.775>
LayerCount: 2
Fore
SplineSet
596 85 m 2xe4
 596 715 l 2
 596 778 503 792 503 792 c 1
 503 800 l 1
 587.917 782.842 758.479 781.079 863 800 c 1
 863 792 l 1
 863 792 770 778 770 715 c 2
 770 85 l 2
 770 21 863 8 863 8 c 1
 863 0 l 1
 761.868 20.9863 591.205 18.9893 503 0 c 1
 503 8 l 1
 503 8 596 22 596 85 c 2xe4
204 434 m 1xec
 710 434 l 1
 710 403 l 1
 204 403 l 1
 204 434 l 1xec
117 85 m 6xf4
 117 715 l 6
 117 778 24 792 24 792 c 5
 24 800 l 5
 108.917 782.841 279.478 781.08 384 800 c 5
 384 792 l 5
 384 792 291 778 291 715 c 6
 291 85 l 6
 291 21 384 8 384 8 c 5
 384 0 l 5
 282.868 20.9864 112.205 18.989 24 0 c 5
 24 8 l 5
 24 8 117 22 117 85 c 6xf4
EndSplineSet
Validated: 37
EndChar

StartChar: k
Encoding: 107 107 28
Width: 578
VWidth: 0
Flags: W
HStem: 0 8<30 41.2956 272.531 284 375 386.372 616.601 629> 495 8<570.398 589> 779 20G<203.5 224.027>
VStem: 90 135<22.1807 693.201>
LayerCount: 2
Fore
SplineSet
254.645 256.5 m 13
 354.756 342.5 l 21
 565 59 l 5
 565 59 592 18 614 12 c 6
 629 8 l 5
 629 0 l 5
 540.67 11.4543 455.661 11.5011 375 0 c 5
 375 8 l 5
 390 12 l 6
 410 17 417.383 37.2783 402 58 c 6
 254.645 256.5 l 13
199 199 m 13
 173 199 l 21
 231.588 246.344 315 311 347 343 c 5
 454 450 335 495 335 495 c 5
 335 503 l 5
 423 492 508 492 589 503 c 5
 589 500 590 495 590 495 c 5
 545 495 438 412 361 335 c 5
 199 199 l 13
225 59 m 6
 225 46 229 35 240 27 c 4
 249 20 259 15 270 12 c 6
 285 8 l 5
 284 5 284 2 284 0 c 5
 203 11 109.706 10.7071 30 0 c 5
 30 8 l 5
 45 12 l 6
 55 14 65 19 75 27 c 4
 85 35 90 44 90 54 c 6
 90 620 l 6
 90 651 83 676 67 695 c 4
 51 714 30 726 4 733 c 5
 4 739 l 5
 57 747 100 756 131 764 c 4
 162 771 190 783 217 799 c 5
 224 799 l 5
 225 59 l 6
EndSplineSet
Validated: 37
EndChar

StartChar: z
Encoding: 122 122 29
Width: 588
VWidth: 0
Flags: W
HStem: 0 21<174 196 212.833 300.242> 0 13<25 34.1568> 481.059 18.9521<293.449 423.924> 493 7.33984<553 567.673>
VStem: 75.7539 7.2207<261.751 271.174> 529.833 9<250.935 264>
LayerCount: 2
Fore
SplineSet
174 21 m 17x8c
 212.833 21 l 2x8c
 469.835 21 529.833 264 529.833 264 c 1
 538.833 264 l 1
 493 0 l 1
 493 0 469.833 0 173.833 0 c 9x4c
 174 21 l 17x8c
424.075 481.059 m 17x2c
 372.481 481.059 l 2
 140.539 481.059 82.9746 261.751 82.9746 261.751 c 1
 75.7539 261.751 l 1
 119.03 500.011 l 1
 119.03 500.011 156.784 500.011 423.924 500.011 c 9
 424.075 481.059 l 17x2c
196 0 m 5x9c
 115.291 0.352539 99.3753 -0.345215 10 0 c 1
 10 8 l 1
 25 13 l 1x4c
 42 17 96.0508 97.5947 110.5 118 c 2
 380.999 500 l 1
 567.673 500.34 l 5
 568 493 l 5
 553 489 l 6
 531 483 504 442 504 442 c 5
 196 0 l 5x9c
EndSplineSet
Validated: 37
EndChar

StartChar: B
Encoding: 66 66 30
Width: 701
VWidth: 0
Flags: W
HStem: 0 16.9854<309.75 441.666> 0 8<10 26.176> 412.534 11.9648<264.162 458.496> 783.889 16.9863<278.34 411.301> 792.5 8<11.5 27.3917>
VStem: 103 174<39.2837 412.534 424.499 762.925> 277.037 0.962891<775.782 793> 502.162 176.635<514.113 694.812> 532.398 183<119.004 302.947>
LayerCount: 2
Back
SplineSet
1160.7 412.537 m 9xfa
 1062.2 412.535 l 1
 1062.21 412.543 1062.36 424.499 1062.36 424.499 c 9
 1160.7 424.035 l 17
 1160.7 424.033 1513.6 452 1513.6 217.035 c 1
 1513.6 -5 1283.7 0 1160.7 0 c 1
 1121.37 1.16602 1111.04 3.71289 1077.33 7.35938 c 0
 1072.53 21.8154 l 1
 1072.53 21.8154 1103.2 12.9854 1160.7 12.9854 c 1
 1278.2 12.9854 1330.6 45 1330.6 213.035 c 1
 1329.82 367.705 1262.95 412.537 1160.7 412.537 c 9xfa
1160.7 424.035 m 17
 1256.7 424.043 1300.36 501.999 1300.36 613.499 c 1
 1298.37 707.818 1266.08 787.889 1158.58 787.889 c 1
 1097.46 787.889 1075.21 779.782 1075.21 779.782 c 1
 1075.24 793 l 0
 1108.95 796.646 1119.25 799.709 1158.58 800.875 c 1
 1281.58 800.875 1477.31 780.731 1477 613 c 1xfc
 1476.36 412.893 1306.7 412.534 1160.7 412.534 c 9
 1062.2 412.534 l 25
 1062.26 417.2 1062.53 424.963 1062.36 424.499 c 0
 1062.2 424.035 1122.35 424.216 1160.7 424.035 c 17
1076.2 793.112 m 1
 1075.2 85 l 1
 1074.92 20.7432 1135.2 12.9854 1160.7 12.9854 c 1
 1160.7 0 l 1
 1107.95 0 1051.2 14.25 993.952 15.0098 c 1
 925.558 15.0293 856.466 9.75586 808.202 0 c 1
 808.202 8 l 1
 808.202 8 901.052 22 901.202 85 c 2
 902.702 715.5 l 2
 902.852 778.5 809.702 792.5 809.702 792.5 c 1
 809.702 800.5 l 1
 856.308 791.08 920.243 786.535 984.202 786.561 c 1
 1019.05 786.803 1048.74 789.931 1076.2 793.112 c 1
EndSplineSet
Fore
SplineSet
362.497 412.537 m 9xa680
 264 412.535 l 1
 264.003 412.543 264.162 424.499 264.162 424.499 c 9
 362.5 424.035 l 17
 362.5 424.033 715.398 452 715.398 217.035 c 1
 715.398 -5 485.5 0 362.5 0 c 1
 323.167 1.16602 312.838 3.71289 279.125 7.35938 c 0
 274.327 26.8154 l 1
 274.327 26.8154 305 16.9854 362.5 16.9854 c 1
 480 16.9854 532.398 45 532.398 213.035 c 1
 531.622 367.705 464.75 412.537 362.497 412.537 c 9xa680
362.5 424.035 m 17
 458.496 424.043 502.162 501.999 502.162 613.499 c 1
 500.164 707.818 467.881 783.889 360.381 783.889 c 1
 299.256 783.889 277.005 775.782 277.005 775.782 c 1
 277.037 793 l 0
 310.75 796.646 321.047 799.709 360.381 800.875 c 1
 483.381 800.875 679.104 780.731 678.797 613 c 1x37
 678.158 412.892 508.5 412.534 362.498 412.534 c 9
 263.999 412.534 l 25
 264.062 417.2 264.324 424.963 264.162 424.499 c 0
 264 424.035 324.148 424.216 362.5 424.035 c 17
278 793.112 m 1
 277 85 l 1
 276.717 20.7432 337 16.9854 362.5 16.9854 c 1
 362.5 0 l 1xae
 309.75 0 253 14.25 195.75 15.0098 c 1
 127.355 15.0293 58.2637 9.75586 10 0 c 1
 10 8 l 1
 10 8 102.85 22 103 85 c 2
 104.5 715.5 l 2
 104.649 778.5 11.5 792.5 11.5 792.5 c 1
 11.5 800.5 l 1x6e
 58.1055 791.08 122.041 786.535 186 786.561 c 1
 220.845 786.802 250.541 789.931 278 793.112 c 1
EndSplineSet
Validated: 37
EndChar

StartChar: P
Encoding: 80 80 31
Width: 690
VWidth: 0
Flags: W
HStem: 0 8<11.5088 25.0352 357.757 371.509> 348.269 11.502<264.391 395.086> 783.014 16.986<279.077 406.424> 791.5 8<11.666 27.5577>
VStem: 104.509 174<40.489 85 714.5 760.274> 277.977 0.585022<774.403 792.288> 502.327 176.636<490.275 672.751>
LayerCount: 2
Fore
SplineSet
362.665 359.771 m 9xe6
 362.665 359.771 264.165 359.771 264.327 360.233 c 1
 264.164 348.269 l 9
 362.663 348.269 l 17
 384.165 348.269 678.963 348.021 678.963 584.817 c 1
 679.27 752.55 485.695 800 362.695 800 c 1
 323.362 798.834 311.689 795.935 277.977 792.288 c 0
 277.891 774.403 l 1
 277.891 774.403 305.195 783.014 362.695 783.014 c 1
 470.195 783.014 500.329 679.636 502.327 585.317 c 1
 502.327 473.817 456.165 359.771 362.665 359.771 c 9xe6
278.562 792.35 m 1
 250.783 789.013 220.225 785.797 186.166 785.561 c 1
 122.207 785.535 58.2715 790.08 11.666 799.5 c 1
 11.666 791.5 l 1
 11.666 791.5 105.281 777.497 104.666 714.5 c 2
 104.509 85 l 2
 104.493 22 11.5088 8 11.5088 8 c 1
 11.5088 0 l 1
 104.028 18.9878 277.306 20.9861 371.509 0 c 1
 371.509 8 l 1
 371.509 8 278.509 21 278.509 84.9961 c 1xda
 278.562 792.35 l 1
EndSplineSet
EndChar

StartChar: C
Encoding: 67 67 32
Width: 726
VWidth: 0
Flags: W
HStem: -15 17<331.925 452.026> 798 17<340.537 449.202>
VStem: 0 189<271.147 537.068> 674.5 8.5<-4 16.0269 278.178 293.833 489 519.322 778.496 803>
LayerCount: 2
Back
SplineSet
392 800 m 5
 316 800 1.0498 717.689 0 406 c 5
 1.15918 145.176 217 -10 392 -10 c 5
 519 -10 590 69 637 69 c 5
 665.5 69 674.572 0.989258 674.572 0.989258 c 13
 683 1 l 29
 683.166 298.833 l 29
 674.565 298.87 l 21
 674.565 298.87 622 7 391 7 c 5
 184 7 189 233 189 411 c 5
 189 548 189 783 392 783 c 5
 577 783 674.5 551 674.5 474 c 13
 683 474 l 29
 683 788 l 29
 674.625 788 l 21
 674.625 788 674.375 731 632 731 c 5
 597.875 731 521.5 800 392 800 c 5
EndSplineSet
Fore
SplineSet
392 815 m 5
 316 815 1.0498 717.689 0 406 c 1
 1.15918 145.176 217 -15 392 -15 c 1
 519 -15 590 64 637 64 c 1
 665.5 64 674.572 -4.01074 674.572 -4.01074 c 9
 683 -4 l 25
 683.166 293.833 l 25
 674.565 293.87 l 17
 674.565 293.87 622 2 391 2 c 1
 184 2 189 233 189 411 c 1
 189 548 189 798 392 798 c 1
 577 798 674.5 566 674.5 489 c 9
 683 489 l 25
 683 803 l 25
 674.625 803 l 17
 674.625 803 674.375 746 632 746 c 1
 597.875 746 521.5 815 392 815 c 5
EndSplineSet
Validated: 524329
EndChar

StartChar: R
Encoding: 82 82 33
Width: 730
VWidth: 0
Flags: W
HStem: 0 8<16.5088 30.232 362.92 376.509 765.955 781> 347.833 11.964<304.099 405.558> 783.014 16.986<284.077 411.226> 791.5 8<16.666 32.5577>
VStem: 109.509 174<40.489 85 714.5 760.274> 282.977 0.585022<774.403 792.288> 503.327 176.636<498.322 672.751>
LayerCount: 2
Fore
SplineSet
663 152.333 m 1xc2
 580 332.5 476 360.5 404 360.5 c 1
 404 360.5 304.437 361.379 304.102 359.333 c 9
 205.764 359.797 l 17
 205.764 359.797 205.605 347.841 205.602 347.833 c 1
 304.099 347.835 l 17
 405.558 348.752 392.259 314.448 532 45 c 1
 543.5 24.5 537.325 14.1569 529.236 12 c 2
 514.236 8 l 1
 514.236 0 l 5
 604.121 20.0515 701.889 20.1736 781 0 c 5
 781 8.00195 l 1
 722.667 9 698 72 663 152.333 c 1xc2
296 389 m 1
312.665 359.771 m 9
 312.665 359.771 269.165 359.771 269.327 360.233 c 1
 269.164 348.269 l 9
 312.663 348.269 l 17
 334.165 348.269 679.963 348.021 679.963 584.817 c 1
 680.27 752.55 490.695 800 367.695 800 c 1
 328.362 798.834 316.689 795.935 282.977 792.288 c 0
 282.891 774.403 l 1
 282.891 774.403 310.195 783.014 367.695 783.014 c 1xe6
 475.195 783.014 501.329 679.636 503.327 585.317 c 1
 503.327 473.817 406.165 359.771 312.665 359.771 c 9
283.562 792.35 m 1
 255.783 789.013 225.226 785.797 191.166 785.561 c 1
 127.207 785.535 63.2715 790.08 16.666 799.5 c 1
 16.666 791.5 l 1
 16.666 791.5 110.281 777.497 109.666 714.5 c 2
 109.509 85 l 2
 109.493 22 16.5088 8 16.5088 8 c 1
 16.5088 0 l 1
 110.509 19 283.509 21 376.509 0 c 1
 376.509 8 l 1
 376.509 8 283.509 21 283.509 84.9961 c 1xda
 283.562 792.35 l 1
EndSplineSet
Validated: 524325
EndChar

StartChar: D
Encoding: 68 68 34
Width: 826
VWidth: 0
Flags: W
HStem: 0 16.9854<310.75 443.101> 0 8<11 27.176> 783.889 16.986<279.34 425.17> 792.5 8<12.5 28.3917>
VStem: 104 174<39.2837 762.925> 278.037 0.963013<775.782 793> 614 198<267.388 553.46>
LayerCount: 2
Fore
SplineSet
812 420 m 5xae
 812 118 619 0 363.5 0 c 5
 324.167 1.16602 313.838 3.71289 280.125 7.35938 c 0
 275.327 26.8154 l 1
 275.327 26.8154 306 16.9854 363.5 16.9854 c 5
 481 16.9854 614 44 614 416 c 5
 614 718 468.881 783.889 361.381 783.889 c 5
 300.256 783.889 278.005 775.782 278.005 775.782 c 1
 278.037 793 l 0
 311.75 796.646 322.047 799.709 361.381 800.875 c 5
 551 800.875 812 718 812 420 c 5xae
279 793.112 m 1
 278 85 l 1
 277.717 20.7432 338 16.9854 363.5 16.9854 c 5
 363.5 0 l 5x9e
 310.75 0 254 14.25 196.75 15.0098 c 1
 128.355 15.0293 59.2637 9.75586 11 0 c 1
 11 8 l 1
 11 8 103.85 22 104 85 c 2
 105.5 715.5 l 2
 105.649 778.5 12.5 792.5 12.5 792.5 c 1
 12.5 800.5 l 1x5e
 59.1055 791.08 123.041 786.535 187 786.561 c 1
 221.845 786.802 251.541 789.931 279 793.112 c 1
EndSplineSet
Validated: 37
EndChar

StartChar: E
Encoding: 69 69 35
Width: 780
VWidth: 0
Flags: W
HStem: 0 16.9854<316 460.435> 0 8<21 37.0019> 389.912 16.088<318 374.564> 782.886 16.989<289.34 438.684> 792.5 8<22.5 38.3917>
VStem: 113 175<39.2837 85 715.5 762.925> 288.037 0.963013<775.782 793> 525 9.33301<202.912 243.405 552.507 593>
LayerCount: 2
Fore
SplineSet
373.5 16.9854 m 5xa7
 316 16.9854 285.327 27.8154 285.327 27.8154 c 5
 290.125 7.35938 l 4
 323.838 3.71289 373.5 0 373.5 0 c 5xa7
 486.667 0 599.835 0 713.002 0 c 13x67
 755.341 282.993 l 29
 746 283 l 21
 746 283 710 16.9854 373.5 16.9854 c 5xa7
21 0 m 1x6f
 141.372 -0 255.771 0 373.5 0 c 1
 373.5 16.9854 l 1xa7
 348 16.9854 287.717 20.7432 288 85 c 1
 289 793.112 l 1
 261.541 789.931 231.845 786.802 197 786.561 c 1
 133.041 786.535 69.1055 791.08 22.5 800.5 c 1
 22.5 792.5 l 1
 22.5 792.5 115.75 778.5 115.5 715.5 c 2
 113 85 l 2
 112.85 22 21 8 21 8 c 1
 21 0 l 1x6f
259 406 m 9
 259 389.912 l 17
 259 389.912 298.333 389.912 318 389.912 c 9
 318 389.912 525 389.912 525 202.912 c 1
 534.333 202.911 l 9
 534.333 593.001 l 17
 525 593 l 1
 525 406 318 406 318 406 c 17
 298.333 406 278.666 406 259 406 c 9
371.381 799.875 m 1x37
 332.047 798.709 321.75 796.646 288.037 793 c 0
 288.005 775.782 l 1
 288.005 775.782 310.256 782.886 371.386 782.886 c 0
 585.333 782.886 703.999 568.001 703.999 568.001 c 9
 713.398 568 l 25
 636.167 771.5 l 17
 636.167 771.5 504.5 799.875 371.381 799.875 c 1x37
EndSplineSet
Validated: 524325
EndChar

StartChar: F
Encoding: 70 70 36
Width: 665
VWidth: 0
Flags: W
HStem: 0 8<21 34.5443 367.202 381> 389.912 16.088<259 374.564> 782.886 16.989<289.34 438.684> 792.5 8<22.5 38.3917>
VStem: 114 174<40.4903 389.912 406 762.925> 259 29<389.912 406> 288.037 0.963013<775.782 793> 525 9.33301<202.912 243.405 552.507 593>
LayerCount: 2
Fore
SplineSet
259 406 m 17xc7
 278.666 406 298.333 406 318 406 c 9
 318 406 525 406 525 593 c 1
 534.333 593.001 l 9
 534.333 202.911 l 17
 525 202.912 l 1
 525 389.912 318 389.912 318 389.912 c 17
 259 389.912 l 9
 259 406 l 17xc7
371.381 799.875 m 1xe3
 504.5 799.875 636.167 771.5 636.167 771.5 c 9
 713.398 568 l 25
 703.999 568.001 l 17
 703.999 568.001 585.333 782.886 371.386 782.886 c 0
 310.256 782.886 288.005 775.782 288.005 775.782 c 1
 288.037 793 l 0
 321.75 796.646 332.047 798.709 371.381 799.875 c 1xe3
114 85 m 2xdb
 115.5 715.5 l 2
 115.649 778.5 22.5 792.5 22.5 792.5 c 1
 22.5 800.5 l 1
 69.1055 791.08 133.041 786.535 197 786.561 c 1
 231.845 786.802 261.541 789.931 289 793.112 c 1
 288 85 l 2
 287.909 21 381 8 381 8 c 1
 381 0 l 1
 286.431 20.8064 113.677 19.1776 21 0 c 1
 21 8 l 1
 21 8 113.851 22 114 85 c 2xdb
EndSplineSet
Validated: 37
EndChar

StartChar: N
Encoding: 78 78 37
Width: 863
VWidth: 0
Flags: W
HStem: 0.00585938 8<260.985 274.732> 791.875 7.99902<-25.084 -1.21075 605.25 618.518 866.786 879.982>
VStem: 128.457 17.818<96.3721 139.839> 733.512 17.816<660.042 703.509>
LayerCount: 2
Fore
SplineSet
0 0.00195312 m 1
 -0.409898 -10.7151 125.568 34.255 274.732 0.00585938 c 1
 274.732 8.00586 l 1
 274.732 8.00586 146.275 35.5059 146.275 139.839 c 1
 145.816 714.879 l 9
 128 714.878 l 17
 128.457 139.839 l 1
 128.457 35.5059 0 8.00586 0 8.00586 c 1
 0 0.00195312 l 1
605.25 799.874 m 5
 605.25 791.875 l 5
 605.25 791.875 733.707 764.375 733.707 660.042 c 5
 733.512 100.997 l 13
 751.328 100.996 l 21
 751.525 660.042 l 5
 751.525 764.375 879.982 791.875 879.982 791.875 c 5
 879.982 799.875 l 5
 738.953 769.979 605.25 799.874 605.25 799.874 c 5
95.916 734.874 m 1
 743.055 -10 l 1
 751.6 -10 l 25
 751.055 258 l 1
 288.5 800 l 1
 202.586 782.301 105.595 781.315 -25.375 800 c 1
 -25.084 790.542 l 1
 46.25 789.829 95.916 734.874 95.916 734.874 c 1
EndSplineSet
Validated: 37
EndChar

StartChar: I
Encoding: 73 73 38
Width: 401
VWidth: 0
Flags: W
HStem: 0 8<18 31.6675 364.347 378> 792 8<18 31.7231 364.411 378>
VStem: 111 174<40.4903 760.775>
LayerCount: 2
Fore
SplineSet
111 85 m 2
 111 715 l 2
 111 778 18 792 18 792 c 1
 18 800 l 1
 112 781 285 778 378 800 c 1
 378 792 l 1
 378 792 285 778 285 715 c 2
 285 85 l 2
 285 21 378 8 378 8 c 1
 378 0 l 5
 284.522 20.9864 111.588 18.9884 18 0 c 5
 18 8 l 1
 18 8 111 22 111 85 c 2
EndSplineSet
Validated: 33
EndChar

StartChar: A
Encoding: 65 65 39
Width: 789
VWidth: 0
Flags: W
HStem: 0 8.25<2.42188 27.9083 295.767 315.92 451.055 469.103> 246 16<226.422 484> 798 20G<426.268 440.841>
LayerCount: 2
Fore
SplineSet
484 262 m 1
 484 246 l 1
 226.422 246 l 1
 226.422 262 l 1
 484 262 l 1
377.422 615.498 m 17
 203.422 170.997 l 2
 146.727 26.1641 315.92 7.99902 315.92 7.99902 c 1
 315.92 -0.000976562 l 1
 224.421 9.58466 96.3672 11.7974 2.375 0 c 1
 2.42188 8.25 l 1
 114.255 11 187.422 178.997 187.422 178.997 c 1
 362.42 615.498 l 9
 377.422 615.498 l 17
720.922 90.665 m 2
 745.01 29.833 818.055 8 818.055 8 c 1
 818.055 0 l 1
 725.052 12.5591 545.052 11.571 451.055 0 c 1
 451.055 8 l 1
 451.055 8 557.291 24.5723 532.92 82.668 c 2
 354.479 536.903 l 1
 336.422 577 320.922 597.991 293.996 597.991 c 1
 291.188 603.294 l 1
 335.17 635.63 343.352 655.332 370.922 698 c 0
 391.922 730.5 426.268 815.608 426.268 815.608 c 1
 432.922 818 l 1
 720.922 90.665 l 2
EndSplineSet
Validated: 524325
EndChar

StartChar: K
Encoding: 75 75 40
Width: 789
VWidth: 0
Flags: W
HStem: 1 7<24 36.9317 369.336 384 528 539.835 814.495 827> 792 8<24 40.1994 368.882 384>
VStem: 117 174<40.4903 760.775>
LayerCount: 2
Fore
SplineSet
339 404.25 m 13
 460.678 544.32 l 21
 754 63.5 l 5
 754 63.5 786.186 18.8838 812 12 c 6
 827 8 l 5
 827 0 l 5
 740.025 10.6606 609.97 10.6732 528 0 c 5
 528 8 l 5
 543 12 l 6
 563 17 570.067 37.0479 555 58 c 6
 339 404.25 l 13
249.5 298 m 9
 217.5 298 l 17
 276.088 345.344 527 640.325 527 640.325 c 1
 642.675 756 515.353 792.805 515 792.325 c 1
 515 800.325 l 1
 603 781.866 688 781.917 769 800.325 c 1
 769 797.325 770 792.325 770 792.325 c 1
 725 792.325 624 715.325 541 632.325 c 1
 249.5 298 l 9
117 85 m 2
 117 715 l 2
 117 778 24 792 24 792 c 1
 24 800 l 1
 108.917 782.841 279.478 781.08 384 800 c 1
 384 792 l 1
 384 792 291 778 291 715 c 2
 291 85 l 2
 291 21 384 8 384 8 c 1
 384 1 l 1
 282.868 11.5596 112.205 10.8799 24 1 c 1
 24 8 l 1
 24 8 117 22 117 85 c 2
EndSplineSet
Validated: 524325
EndChar

StartChar: O
Encoding: 79 79 41
Width: 773
VWidth: 0
Flags: W
HStem: -15 16.9512<348.173 424.961> 798.004 16.9854<341.238 430.763>
VStem: 17.0723 198<242.327 539.624> 556.964 198<239.752 537.008>
LayerCount: 2
Back
SplineSet
386.127 -13.9512 m 5
 189.964 -13.9512 17.0723 113 17.0723 394 c 5
 17.0723 692 240.345 802.001 386 802.001 c 5
 531.655 802.001 754.964 689.14 754.964 391.14 c 5
 754.964 110.14 582.036 -13.9512 386.127 -13.9512 c 5
386 785.015 m 5
 279.489 783.101 215.072 712 215.072 390 c 5
 215.072 91 304.464 3 386 3 c 5
 467.536 3 556.964 88.1396 556.964 387.14 c 5
 556.964 709.14 492.511 783.101 386 785.015 c 5
3467.75 414 m 1
3884.33 777.89 m 1
 3776.83 777.89 3710.71 712 3710.71 410 c 1
 3710.71 38 3765.21 10.9854 3882.14 10.9854 c 1
 3999.64 10.9854 4053.64 38 4053.64 410 c 1
 4053.64 712 3987.53 777.89 3880.03 777.89 c 1
3880.03 794.875 m 1
 4069.64 794.875 4251.64 712 4251.64 414 c 1
 4251.64 112 4137.64 -6 3882.14 -6 c 1
 3627.21 -6 3512.71 112 3512.71 414 c 1
 3512.71 712 3694.71 794.875 3884.33 794.875 c 1
4849.33 777.89 m 1
 4741.83 777.89 4596.71 712 4596.71 410 c 1
 4596.71 38 4729.71 10.9854 4847.21 10.9854 c 1
 4962.64 10.9854 5099.64 38 5099.64 410 c 1
 5099.64 712 4954.53 777.89 4849.33 777.89 c 1
4849.33 794.875 m 1
 5036.64 794.875 5297.64 712 5297.64 414 c 1
 5297.64 112 5100.64 -6 4847.21 -6 c 1
 4591.71 -6 4398.71 112 4398.71 414 c 1
 4398.71 712 4659.71 794.875 4849.33 794.875 c 1
2995.66 -10 m 0
 2911.81 -10 2832.11 26.8398 2750.99 104.841 c 0
 2669.87 181.28 2629.3 278 2629.3 396.561 c 0
 2629.3 512 2669.87 607.16 2750.99 685.16 c 0
 2832.11 761.601 2925.83 800 2995.66 800 c 0
 3065 800 3159.71 761.601 3240.83 685.16 c 0
 3321.95 607.16 3362.5 512 3362.5 396.561 c 0
 3362.5 278 3321.95 181.28 3240.83 104.841 c 0
 3159.71 26.8398 3079 -10 2995.66 -10 c 0
2995.78 7.63281 m 0
 3160.36 7.63281 3171.71 205.96 3171.71 400.216 c 0
 3171.71 591.099 3159.39 782.166 2995.66 782.166 c 0
 2831.42 782.166 2820.09 591.099 2820.09 400.216 c 0
 2820.09 205.96 2830.79 7.63281 2995.78 7.63281 c 0
2146.83 7.63281 m 0
 1981.08 7.63281 1970.71 205.96 1970.71 400.216 c 0
 1970.71 591.099 1981.91 782.666 2146.83 782.666 c 0
 2314.09 782.666 2321.29 591.099 2321.29 400.216 c 0
 2321.29 205.96 2314.92 7.63281 2146.83 7.63281 c 0
2146.83 800.291 m 0
 1982 800.291 1782 631.272 1782 398.649 c 0
 1782 163.072 1998 -10 2146.83 -10.125 c 0
 2298 -10 2510 163.072 2510 398.649 c 0
 2510 631.272 2314 800.291 2146.83 800.291 c 0
1325.55 7.63281 m 0
 1159.79 7.63281 1159.43 205.96 1159.43 400.216 c 0
 1159.43 591.099 1160.62 782.666 1325.55 782.666 c 0
 1492.81 782.666 1490 591.099 1490 400.216 c 0
 1490 205.96 1493.64 7.63281 1325.55 7.63281 c 0
1325.55 800.291 m 0
 1160.71 800.291 970.715 631.272 970.715 398.649 c 0
 970.715 163.072 1176.71 -10 1325.55 -10.125 c 0
 1476.71 -10 1678.71 163.072 1678.71 398.649 c 0
 1678.71 631.272 1492.71 800.291 1325.55 800.291 c 0
EndSplineSet
Fore
SplineSet
385.667 -15 m 5
 189.504 -15 17.0723 113 17.0723 394 c 1
 17.0723 692 240.345 814.989 386 814.989 c 1
 531.654 814.989 754.964 689.14 754.964 391.14 c 1
 754.964 110.14 581.575 -15 385.667 -15 c 5
386 798.004 m 1
 279.488 796.09 215.072 712 215.072 390 c 1
 215.072 91 304.004 1.95117 385.54 1.95117 c 5
 467.075 1.95117 556.964 88.1396 556.964 387.14 c 1
 556.964 709.14 492.511 796.09 386 798.004 c 1
EndSplineSet
Validated: 524289
EndChar

StartChar: Q
Encoding: 81 81 42
Width: 773
VWidth: 0
Flags: W
HStem: -167 76<421.5 675.5> -13.9512 16.9512<346.706 425.401> 798.014 16.9863<341.239 430.763>
VStem: 17.0723 198<242.431 539.625> 53 8<-90.3281 -73.5715> 556.964 198<239.856 537.009> 751 8<-16.2114 -2>
LayerCount: 2
Fore
SplineSet
221 26 m 1xea
 314 26 451 -91 648 -91 c 1
 703 -91 741 -54 751 -2 c 1
 759 -2 l 1
 749 -107 614 -167 501 -167 c 0
 342 -167 249 -25 119 -25 c 0
 88 -25 62 -63.3281 61 -90.3281 c 1
 53 -90.3281 l 1
 53 -16 114 22 221 26 c 1xea
386.127 -13.9512 m 1
 189.964 -13.9512 17.0723 113 17.0723 394 c 1
 17.0723 692 240.345 815 386 815 c 1
 531.655 815 754.964 689.14 754.964 391.14 c 1xf4
 754.964 110.14 582.036 -13.9512 386.127 -13.9512 c 1
386 798.014 m 1
 279.489 796.1 215.072 712 215.072 390 c 1
 215.072 91 304.464 3 386 3 c 1
 467.536 3 556.964 88.1396 556.964 387.14 c 1
 556.964 709.14 492.511 796.1 386 798.014 c 1
EndSplineSet
Validated: 524293
EndChar

StartChar: S
Encoding: 83 83 43
Width: 563
VWidth: 0
Flags: W
HStem: -15 18<237.144 325.491> 797.997 17.001<203.284 283.66>
VStem: 9 130<440.7 695.5> 16.0371 14.9629<-1 24.251 291.617 305> 399.992 137.008<133.763 380.916> 463.375 8.375<782.914 804.667> 477.25 12.5<540.667 564.931>
LayerCount: 2
Fore
SplineSet
250.009 797.997 m 1xe8
 350.25 797.997 477.25 586.667 477.25 540.667 c 9
 489.75 540.667 l 25
 471.75 804.667 l 25
 463.375 804.667 l 17
 463.375 804.667 461.75 756.667 430.25 756.667 c 1
 390 756.667 362.5 814.998 254.01 814.998 c 1
 114 815 9 702 9 560 c 0xe6
 9 321.4 399.446 353.396 399.992 136 c 5
 399.992 68 372.593 2.99219 275 3 c 5
 181 3 66.6592 162.733 34 305 c 5
 20.9355 305 l 5
 16.0371 -1 l 5
 16.0127 -0.902344 23.3008 -1.04297 31 -1 c 5xd8
 31 25 48 38 61 38 c 5
 91.25 38 197.81 -15 275.125 -15 c 4
 435.159 -15 537 100.357 537 237.831 c 5
 537 524 139 467 139 676 c 1
 139 715 145.199 798.31 250.009 797.997 c 1xe8
EndSplineSet
Validated: 524325
EndChar

StartChar: M
Encoding: 77 77 44
Width: 1015
VWidth: 0
Flags: W
HStem: 0 8<0 12.5771 260.985 274.732 640.219 656.391 985.555 1000.22> 790.179 9.82098<-23.7217 9.24939 1002.4 1047.44>
VStem: 128.457 17.818<96.3721 139.839> 733.219 174<40.4903 85 692 750.365>
LayerCount: 2
Fore
SplineSet
735.219 799.996 m 1
 733.219 85 l 2
 733.043 22 640.219 8 640.219 8 c 1
 640.219 0 l 1
 728.424 18.9893 899.087 20.9863 1000.22 0 c 1
 1000.22 8 l 1
 1000.22 8 907.219 21 907.219 85 c 2
 907.219 692 l 1
 907.219 741.5 940.056 789.365 1047.44 790.179 c 1
 1049.09 800 l 1
 831.82 777.946 826.022 786.527 735.219 799.996 c 1
471.75 101.5 m 21
 751.825 793.544 l 13
 735.219 800 l 21
 455.144 107.956 l 13
 471.75 101.5 l 21
134 696 m 1
 417 0 l 9
 430.335 0 l 25
 522.007 226.664 l 25
 288.5 800 l 17
 202.586 782.301 105.595 781.315 -25.375 800 c 1
 -23.7217 790.179 l 1
 84.1867 790.134 122.667 725 134 696 c 1
0 0.00195312 m 1
 0 0.00195312 125.635 33.6277 274.732 0.00585938 c 1
 274.732 8.00586 l 1
 274.732 8.00586 146.275 35.5059 146.275 139.839 c 1
 145.816 714.879 l 9
 128 714.878 l 17
 128.457 139.839 l 1
 128.457 35.5059 0 8.00586 0 8.00586 c 1
 0 0.00195312 l 1
EndSplineSet
Validated: 524325
EndChar

StartChar: U
Encoding: 85 85 45
Width: 851
VWidth: 0
Flags: W
HStem: -15 25.0488<411.436 534.581> 792 8<6.43848 22.6242 351.32 366.438 597.688 610.957 859.224 872.42>
VStem: 100 174.51<193.977 313.681 715 759.07> 725.95 16.4873<229.234 313.681 660.042 695.662>
LayerCount: 2
Back
SplineSet
2363.19 13.4004 m 1
 2482.24 13.4004 2651.94 105.398 2646.75 310 c 1
 2646.95 660.042 l 1
 2646.95 764.375 2518.49 791.875 2518.49 791.875 c 1
 2518.49 799.874 l 1
 2518.49 799.874 2652.2 769.979 2793.22 799.875 c 1
 2793.22 791.875 l 1
 2793.22 791.875 2664.77 764.375 2664.77 660.042 c 1
 2663.24 318.681 l 1
 2663.24 138 2563.24 -10 2360.8 -10 c 0
 2154.2 -10 2021.06 139 2020.8 318.681 c 2
 2020.24 715 l 2
 2020.15 778.002 1927.24 792 1927.24 792 c 1
 1927.24 800 l 1
 2012.16 782.841 2182.72 781.08 2287.24 800 c 1
 2287.24 792 l 1
 2287.24 792 2194.1 778.001 2194.24 715 c 2
 2195.31 236 l 1
 2195.31 122 2234.54 13.3896 2361.41 13.4004 c 1
2195.31 236 m 1
1476 15.0586 m 1
 1316 15.0273 1247.07 122 1247.07 236 c 1
 1246 715 l 2
 1245.86 778.001 1339 792 1339 792 c 1
 1339 800 l 1
 1234.48 781.08 1063.92 782.841 979 800 c 1
 979 792 l 1
 979 792 1071.93 778.002 1072 715 c 1
 1073.49 552.086 1072.56 233 1072.56 233 c 1
 1072.56 104 1188 -10 1412.56 -10 c 1
 1620 -10 1712.83 73 1712.83 256 c 1
 1712.53 618.361 l 1
 1712.53 722.694 1840.98 791.875 1840.98 791.875 c 1
 1840.98 799.875 l 1
 1699.95 769.979 1566.25 799.874 1566.25 799.874 c 1
 1566.25 791.875 l 1
 1566.25 791.875 1694.71 764.375 1694.71 660.042 c 1
 1694.51 274.333 l 1
 1694.51 83 1593 15.0586 1476 15.0586 c 1
1247.07 236 m 1
3603.46 317.668 m 1
 3603.65 660.042 l 1
 3603.65 764.375 3475.2 791.875 3475.2 791.875 c 1
 3475.2 799.874 l 1
 3475.2 799.874 3608.9 769.979 3749.93 799.875 c 1
 3749.93 791.875 l 1
 3749.93 791.875 3621.47 764.375 3621.47 660.042 c 1
 3621.28 293 l 1
 3621.28 119 3550.95 -10 3323.95 -10 c 1
 3085.95 -10 2978.27 106.001 2977.95 254 c 2
 2976.95 715 l 2
 2976.81 778.001 2883.95 792 2883.95 792 c 1
 2883.95 800 l 1
 2968.86 782.841 3139.43 781.08 3243.95 800 c 1
 3243.95 792 l 1
 3243.95 792 3150.77 778.001 3150.95 715 c 2
 3152.02 332.875 l 1
 3152.02 29.667 3288.61 15.04 3378.61 15.0625 c 1
 3591.95 15.0947 3603.46 250 3603.46 317.668 c 1
731.745 274.572 m 2
 731.745 627.336 l 6
 731.745 727.286 655.312 790.783 605.926 790.783 c 5
 605.926 800.19 l 5
 869.324 800.19 l 5
 869.324 790.783 l 5
 799.947 790.783 743.505 727.286 743.505 627.336 c 6
 743.505 268.692 l 2
 743.505 204.02 728.218 144.049 690.59 92.3086 c 0
 644.729 28.8115 562.42 -11.167 422.487 -11.167 c 0
 266.096 -11.167 105 86.4297 105 233.417 c 2
 105 712 l 2
 105 767.267 49.7334 791.96 0.34668 791.96 c 1
 0.34668 800.19 l 1
 386.036 800.19 l 1
 386.036 791.96 l 1
 336.648 791.96 281.383 767.267 281.383 712 c 2
 281.383 271.044 l 2
 281.383 84.0791 374.276 13.5254 521.262 13.5254 c 0
 585.937 13.5254 645.906 48.8027 684.709 106.421 c 0
 715.282 151.104 731.745 209.897 731.745 274.572 c 2
EndSplineSet
Fore
SplineSet
475.749 10.0488 m 1
 348.879 10.0381 274.51 117 274.51 231 c 1
 273.438 715 l 2
 273.299 778.001 366.438 792 366.438 792 c 1
 366.438 800 l 1
 261.916 781.08 91.3555 782.841 6.43848 800 c 1
 6.43848 792 l 1
 6.43848 792 99.3506 778.002 99.4385 715 c 2
 100 313.681 l 2
 100.256 134 233.394 -15 440 -15 c 0
 642.438 -15 742.438 125.25 742.438 313.681 c 1
 743.963 660.042 l 1
 743.963 764.375 872.42 791.875 872.42 791.875 c 1
 872.42 799.875 l 1
 731.392 769.979 597.688 799.874 597.688 799.874 c 1
 597.688 791.875 l 1
 597.688 791.875 726.146 764.375 726.146 660.042 c 1
 725.95 305 l 1
 725.95 83.25 572 10.0488 475.749 10.0488 c 1
274.51 231 m 1
EndSplineSet
Validated: 524329
EndChar

StartChar: V
Encoding: 86 86 46
Width: 838
VWidth: 0
Flags: W
HStem: 792.499 8<353.233 367 522.965 541.695 815.956 836.463>
LayerCount: 2
Back
SplineSet
1600.5 674 m 5
 1365.25 91.5 l 13
 1348.64 97.9561 l 21
 1565.5 639 l 5
 1622 770 1483.85 792.806 1483.5 792.325 c 5
 1483.5 800.325 l 5
 1571.5 782.195 1664.5 781.59 1745.5 800.325 c 5
 1745.5 797.325 1746.5 792.325 1746.5 792.325 c 5
 1701.5 792.325 1633.5 752.5 1600.5 674 c 5
1226.22 693.008 m 14
 1411 206 l 29
 1324.83 -10 l 29
 1311.5 -10 l 21
 1024 715 l 5
 999.5 786.5 931 792 931 792 c 5
 931 800 l 5
 1015.92 782.841 1186.48 781.08 1291 800 c 5
 1291 792 l 5
 1291 792 1200.38 761.119 1226.22 693.008 c 14
EndSplineSet
Fore
SplineSet
461.463 187 m 21
 635.463 631.501 l 6
 692.158 776.334 522.965 792.499 522.965 792.499 c 5
 522.965 800.499 l 5
 599.455 784.319 721.101 779.502 836.51 800.498 c 5
 836.463 792.248 l 5
 724.631 789.498 651.463 623.501 651.463 623.501 c 5
 476.465 187 l 13
 461.463 187 l 21
483.466 206.001 m 5
 397.466 -10 l 5
 384.466 -10 l 5
 96.4658 717.335 l 6
 72.3779 778.167 0 791.999 0 791.999 c 5
 0 799.999 l 5
 93.0029 787.277 273.003 774.946 367 799.999 c 5
 367 791.999 l 5
 367 791.999 262.353 776.068 285.135 717.331 c 6
 483.466 206.001 l 5
EndSplineSet
Validated: 524325
EndChar

StartChar: W
Encoding: 87 87 47
Width: 1373
VWidth: 0
Flags: W
HStem: 792.499 8<353.233 367 1046.22 1064.95 1339.21 1359.72>
LayerCount: 2
Fore
SplineSet
984.718 187 m 17
 1158.72 631.501 l 2
 1215.41 776.334 1046.22 792.499 1046.22 792.499 c 1
 1046.22 800.499 l 1
 1122.71 784.318 1244.36 779.502 1359.76 800.498 c 1
 1359.72 792.248 l 1
 1247.89 789.498 1174.72 623.501 1174.72 623.501 c 1
 999.72 187 l 9
 984.718 187 l 17
1006.72 206.001 m 1
 920.721 -10 l 1
 907.721 -10 l 1
 619.721 717.335 l 2
 595.633 778.167 523.255 791.999 523.255 791.999 c 1
 523.255 799.999 l 1
 606.109 788.426 727.447 776.532 890.255 799.999 c 1
 890.255 791.999 l 1
 890.255 791.999 785.607 776.068 808.39 717.331 c 2
 1006.72 206.001 l 1
461.463 187 m 17
 631 619.333 l 1
 645.333 655.667 619.721 717.335 619.722 717.336 c 1
 595.333 778.333 522.943 792.529 522.965 792.499 c 1
 522.965 800.499 l 1
 599.455 784.319 774.894 779.253 890.303 800.249 c 1
 890.256 791.999 l 1
 778.344 789.055 660.333 644.667 651.463 623.501 c 1
 476.465 187 l 9
 461.463 187 l 17
483.466 206.001 m 1
 397.466 -10 l 1
 384.466 -10 l 1
 96.4658 717.335 l 2
 72.3779 778.167 0 791.999 0 791.999 c 1
 0 799.999 l 1
 93.0029 787.277 273.003 774.946 367 799.999 c 1
 367 791.999 l 1
 367 791.999 262.353 776.068 285.135 717.331 c 2
 483.466 206.001 l 1
EndSplineSet
Validated: 524325
EndChar

StartChar: J
Encoding: 74 74 48
Width: 535
VWidth: 0
Flags: W
HStem: -10 16<184.116 232.224> 792.5 8<171.001 186.119 514.805 531>
VStem: 13.8525 150.15<39.5 160.611> 264 173.853<138.08 297.004 715.5 761.276>
LayerCount: 2
Back
SplineSet
2605 297.004 m 5
 2605 188.125 2555.46 -10 2389.06 -10 c 4
 2313.66 -10 2264.26 71.9004 2264.26 127.8 c 4
 2264.26 177.2 2291.56 208.4 2338.36 211 c 5
 2381.26 211 2422 192.8 2422 133 c 5
 2422 101.367 2395.56 32.0342 2441.06 32.0342 c 5xbf80
 2451.67 32.0342 2490.91 34 2490.91 99.6328 c 5
 2490.91 185.433 2431 241.866 2431.02 315.001 c 6
 2431.15 715.5 l 6
 2431.17 778.502 2338.15 792.5 2338.15 792.5 c 5
 2338.15 800.5 l 5
 2442.67 781.58 2613.23 783.341 2698.15 800.5 c 5
 2698.15 792.5 l 5
 2698.15 792.5 2605.17 778.504 2605.15 715.5 c 5
 2605.1 611.061 2605 297.004 2605 297.004 c 5
2190 297.004 m 5
 2190 46 2030 -12 1914 -10 c 4x7f80
 1816.01 -8.31055 1766 71.9004 1766 127.8 c 4
 1766 177.2 1793.3 208.4 1840.1 211 c 5
 1883 211 1923.74 192.8 1923.74 133 c 5
 1923.74 101.367 1897.3 13 1942.8 13 c 5
 1971 15 2016.64 34 2016.64 99.6328 c 5
 2016.64 185.433 2016 241.866 2016.02 315.001 c 6
 2016.15 715.5 l 6
 2016.17 778.502 1923.15 792.5 1923.15 792.5 c 5
 1923.15 800.5 l 5
 2027.67 781.58 2198.23 783.341 2283.15 800.5 c 5
 2283.15 792.5 l 5
 2283.15 792.5 2190.17 778.504 2190.15 715.5 c 5
 2190.1 611.061 2190 297.004 2190 297.004 c 5
891.979 282.5 m 5
 892.126 715.5 l 6
 892.147 778.503 985.126 792.5 985.126 792.5 c 5
 985.126 800.5 l 5
 900.209 783.341 729.648 781.58 625.127 800.5 c 5
 625.127 792.5 l 5
 625.127 792.5 718.146 778.502 718.127 715.5 c 6
 718 309 l 6
 721.524 158.281 744.667 171.2 744.667 92 c 5
 744.667 26.5 699.299 26.5801 702 27.0498 c 5
 660 27.0498 671.051 91.0498 671.051 120.249 c 5
 671.051 175.449 633.447 192.249 593.847 192.249 c 5
 550.646 189.849 525.447 161.049 525.447 115.449 c 4
 525.447 63.8486 592.4 -10 662 -10 c 5
 860.354 -10 891.662 200.731 891.979 282.5 c 5
1769.68 715 m 6
 1770.18 286.5 l 6
 1769.89 204.901 1768.5 -10 1517.5 -10 c 5
 1443.5 -10 1401.6 63.3592 1401.6 114.948 c 5
 1401.6 160.548 1426.79 189.349 1470 191.748 c 5
 1509.6 191.748 1547.2 174.948 1547.2 119.748 c 5
 1547.2 90.5488 1540.2 26 1582.2 26 c 5
 1578.87 26 1634.34 28.1582 1641.2 89 c 5
 1641.2 168.199 1595.6 151.5 1595.6 287.748 c 5
 1595.68 715 l 6
 1595.54 778.001 1502.68 792 1502.68 792 c 5
 1502.68 800 l 5
 1607.2 781.08 1777.76 782.841 1862.68 800 c 5
 1862.68 792 l 5
 1862.68 792 1769.61 778.002 1769.68 715 c 6
1320.93 282 m 6
 1321.08 715 l 6
 1321.1 778.003 1414.08 792 1414.08 792 c 5
 1414.08 800 l 5
 1329.16 782.841 1158.6 781.08 1054.08 800 c 5
 1054.08 792 l 5
 1054.08 792 1147.09 778.001 1147.08 715 c 6
 1147 287.749 l 6
 1146.98 220.549 1202.61 168.148 1202.61 88.9482 c 5
 1195.75 28.1074 1153.27 26.5498 1156.6 26.5498 c 5
 1114.6 26.5498 1139 90.5498 1139 119.749 c 5
 1139 174.949 1101.4 191.749 1061.8 191.749 c 5
 1018.6 189.349 993.396 160.549 993.396 114.949 c 4
 993.396 63.3486 1039 -12.251 1108.6 -12.251 c 4
 1262.2 -12.251 1320.64 200.4 1320.93 282 c 6
EndSplineSet
Fore
SplineSet
264 118 m 1
 264 88.5 263.575 5.78125 208.333 6 c 5
 182.667 6 164.003 20.5 164.003 58.5 c 1
 164.003 79 171.591 104.333 171.591 133 c 1
 171.591 192.8 130.853 211 87.9531 211 c 1
 41.1533 208.4 13.8525 177.2 13.8525 127.8 c 0
 13.8525 71.9004 73.6666 -10 201.667 -10 c 1
 308.667 -10 438 34 437.853 297.004 c 1
 437.853 297.004 437.956 611.061 438 715.5 c 1
 438.026 778.504 531 792.5 531 792.5 c 1
 531 800.5 l 1
 446.083 783.341 275.522 781.58 171.001 800.5 c 1
 171.001 792.5 l 1
 171.001 792.5 264.001 778.502 264.001 715.5 c 2
 264 118 l 1
EndSplineSet
Validated: 524329
EndChar

StartChar: X
Encoding: 88 88 49
Width: 823
VWidth: 0
Flags: W
HStem: 0 8<18 37.0571 446 461.118 789.349 806> 792 8<40 56.6511 384.882 400 761.443 780.5>
LayerCount: 2
Fore
SplineSet
416.499 443.75 m 9
 428.75 429 l 17
 374.74 339.332 328.593 249.667 260 160 c 1
 173.07 21.4277 271.646 7.51953 272 8 c 1
 272 0 l 1
 184 11 99 11 18 0 c 1
 18 3 17 8 17 8 c 1
 62 8 183.452 73.6748 246 173 c 2
 416.499 443.75 l 9
372.251 340.25 m 9
 360 355 l 17
 538.5 640 l 2
 625.329 778.634 526.854 792.48 526.5 792 c 1
 526.5 800 l 1
 614.5 789 699.5 789 780.5 800 c 1
 780.5 797 781.5 792 781.5 792 c 1
 736.5 792 614.967 726.375 552.5 627 c 2
 372.251 340.25 l 9
514 79.5 m 6
 182 636 l 13
 300.678 773.82 l 21
 713 85 l 5
 740.177 37.1553 778 9.5 806 8 c 5
 806 0 l 5
 721.083 17.1592 550.522 18.9199 446 0 c 5
 446 8 l 5
 446 8 546.275 25.4004 514 79.5 c 6
332 720.5 m 2
 664 164 l 9
 545.322 26.1797 l 17
 133 715 l 1
 105.823 762.845 68 790.5 40 792 c 1
 40 800 l 1
 124.917 782.841 295.478 781.08 400 800 c 1
 400 792 l 1
 400 792 299.725 774.6 332 720.5 c 2
EndSplineSet
Validated: 524325
EndChar

StartChar: Y
Encoding: 89 89 50
Width: 781
VWidth: 0
Flags: W
HStem: 1 7<204 216.932 549.336 564> 792 8<0 16.6511 344.882 360 809.443 828.5>
VStem: 297 174<40.4903 436>
LayerCount: 2
Back
SplineSet
1297.25 255.5 m 29
 1283.25 268.5 l 21
 1512.25 632 l 6
 1599.45 770.412 1500.6 784.48 1500.25 784 c 5xec
 1500.25 792 l 5
 1588.25 781 1673.25 781 1754.25 792 c 5xdc
 1754.25 789 1755.25 784 1755.25 784 c 5
 1710.25 784 1588.82 718.314 1526.25 619 c 6
 1297.25 255.5 l 29
1405.75 428 m 21
 1405.75 77 l 6
 1405.75 13 1498.75 0 1498.75 0 c 5
 1498.75 -7 l 5
 1397.62 3.55957 1226.96 2.87988 1138.75 -7 c 5
 1138.75 0 l 5
 1138.75 0 1231.75 14 1231.75 77 c 6
 1231.75 428 l 13
 1405.75 428 l 21
1226.75 712.5 m 6
 1405.75 428 l 13
 1321.07 226.18 l 21
 1027.75 707 l 5
 1000.57 754.845 962.75 782.5 934.75 784 c 5
 934.75 792 l 5
 1019.67 774.841 1190.23 773.08 1294.75 792 c 5
 1294.75 784 l 5
 1294.75 784 1193.2 765.82 1226.75 712.5 c 6
EndSplineSet
Fore
SplineSet
371.501 263.5 m 9
 359.25 278.25 l 17
 586.5 640 l 2
 673.52 778.522 574.854 792.48 574.5 792 c 1
 574.5 800 l 1
 662.5 789 747.5 789 828.5 800 c 1
 828.5 797 829.5 792 829.5 792 c 1
 784.5 792 663.066 726.314 600.5 627 c 2
 371.501 263.5 l 9
471 436 m 17
 471 85 l 2
 471 21 564 8 564 8 c 1
 564 1 l 1
 462.868 11.5596 292.205 10.8799 204 1 c 1
 204 8 l 1
 204 8 297 22 297 85 c 2
 297 436 l 9
 471 436 l 17
292 720.5 m 2
 471 436 l 9
 388.5 242 l 17
 93 715 l 1
 65.8232 762.845 28 790.5 0 792 c 1
 0 800 l 1
 84.917 782.841 255.478 781.08 360 800 c 1
 360 792 l 1
 360 792 258.452 773.82 292 720.5 c 2
EndSplineSet
Validated: 524325
EndChar

StartChar: G
Encoding: 71 71 51
Width: 762
VWidth: 0
Flags: W
HStem: -15 17<331.925 452.542> 364 8<380 397.044 753.366 767> 798 17<340.537 449.696>
VStem: 0 189<271.147 537.068> 684.5 8.5<-4 16.0269 489 519.322 778.496 803>
LayerCount: 2
Back
SplineSet
1273 815 m 5
 1197 815 882.05 717.689 881 406 c 5
 882.159 145.176 1098 -15 1273 -15 c 5
 1400 -15 1481 64 1528 64 c 5
 1556.5 64 1565.57 -4.01074 1565.57 -4.01074 c 13
 1574 -4 l 29
 1574.17 293.833 l 29
 1565.57 293.87 l 21
 1565.57 293.87 1503 2 1272 2 c 5
 1065 2 1070 233 1070 411 c 5
 1070 548 1070 798 1273 798 c 5
 1458 798 1565.5 566 1565.5 489 c 13
 1574 489 l 29
 1574 803 l 29
 1565.62 803 l 21
 1565.62 803 1565.38 746 1523 746 c 5
 1488.88 746 1402.5 815 1273 815 c 5
1307 373 m 5
 1307 365 l 5
 1307 365 1400 351 1400 288 c 6
 1400 22 l 5
 1574 134 l 5
 1574 288 l 6
 1574 352.001 1666 365 1666 365 c 5
 1666 373 l 5
 1574 352 1401 354 1307 373 c 5
EndSplineSet
Fore
SplineSet
392 815 m 1
 316 815 1.0498 717.689 0 406 c 1
 1.15918 145.176 217 -15 392 -15 c 1
 519 -15 600 64 647 64 c 1
 675.5 64 684.572 -4.01074 684.572 -4.01074 c 9
 693 -4 l 25
 693.166 293.833 l 25
 684.565 293.87 l 17
 684.565 293.87 622 2 391 2 c 1
 184 2 189 233 189 411 c 1
 189 548 189 798 392 798 c 1
 577 798 684.5 566 684.5 489 c 9
 693 489 l 25
 693 803 l 25
 684.625 803 l 17
 684.625 803 684.375 746 642 746 c 1
 607.875 746 521.5 815 392 815 c 1
380 372 m 1
 380 364 l 1
 380 364 519 339.5 519 287 c 2
 519 21 l 1
 693 133 l 1
 693 287 l 2
 693 351.001 767 364 767 364 c 1
 767 372 l 1
 675 351 474 353 380 372 c 1
EndSplineSet
Validated: 524325
EndChar

StartChar: Z
Encoding: 90 90 52
Width: 780
VWidth: 0
Flags: WO
HStem: 0 16.9854<276.5 324.658 324.659 409.825> 0 8<-4 12.6511> 782.998 16.9893<364.233 515.197>
LayerCount: 2
Back
SplineSet
1126.36 16.9854 m 1xa0
 1455.2 16.9854 1498.86 282.957 1498.86 283 c 9
 1508.2 282.993 l 25
 1465.86 0 l 17x60
 1352.7 0 1239.53 0 1126.36 0 c 1
 1126.36 0 1076.7 3.71289 1042.99 7.35938 c 0
 1038.19 27.8154 l 1
 1038.19 27.8154 1078.2 16.9854 1126.36 16.9854 c 1xa0
1089.7 79.5 m 1
 1057.24 25.6416 1112.23 16.9814 1126.36 16.9814 c 1
 1126.36 0 l 1xa0
 797.702 0 l 1
 797.702 8 l 1
 825.702 9.5 863.525 37.1553 890.702 85 c 1
 1307.02 773.82 l 9
 1425.7 636 l 17
 1089.7 79.5 l 1
1318.2 793.112 m 2
 1318.2 793.112 1367.36 786.802 1402.2 786.561 c 1
 1466.16 786.535 1520.1 791.08 1566.7 800.5 c 1
 1566.7 792.5 l 1
 1566.7 792.5 1516.83 786.904 1473.7 715.5 c 2
 1057.38 26.1797 l 9
 938.702 164 l 17
 1318.2 793.112 l 2
1234.86 799.987 m 1
 1274.19 798.821 1284.49 796.759 1318.2 793.112 c 0
 1318.23 775.895 l 1
 1318.23 775.895 1295.98 782.998 1234.85 782.998 c 0
 1020.91 782.998 902.24 568.113 902.24 568.113 c 9
 892.842 568.112 l 25
 970.072 771.612 l 17
 970.072 771.612 1101.74 799.987 1234.86 799.987 c 1
EndSplineSet
Fore
SplineSet
324.659 16.9854 m 1xa0
 653.5 16.9854 697.159 282.957 697.159 283 c 9
 706.5 282.993 l 25
 664.161 0 l 17x60
 550.994 0 437.826 0 324.659 0 c 1
 324.659 0 274.997 3.71289 241.284 7.35938 c 0
 236.486 27.8154 l 1
 236.486 27.8154 276.5 16.9854 324.659 16.9854 c 1xa0
288 79.5 m 1
 255.536 25.642 310.53 16.9814 324.659 16.9814 c 1
 324.658 -0 l 1xa0
 -4 0 l 1
 -4 8 l 1
 24 9.5 61.8232 37.1553 89 85 c 1
 505.322 773.82 l 9
 624 636 l 17
 288 79.5 l 1
516.5 793.112 m 2
 516.5 793.112 565.655 786.802 600.5 786.561 c 1
 664.459 786.535 718.395 791.08 765 800.5 c 1
 765 792.5 l 1
 765 792.5 715.125 786.904 672 715.5 c 2
 255.678 26.1797 l 9
 137 164 l 17
 516.5 793.112 l 2
433.156 799.987 m 1
 472.49 798.821 482.787 796.759 516.5 793.112 c 0
 516.532 775.895 l 1
 516.532 775.895 494.281 782.998 433.151 782.998 c 0
 219.204 782.998 71.5381 568.113 71.5381 568.113 c 9
 62.1396 568.112 l 25
 139.37 771.612 l 17
 139.37 771.612 300.037 799.987 433.156 799.987 c 1
EndSplineSet
Validated: 524325
EndChar
